<?xml version="1.0" encoding="UTF-8"?>
<svg version="1.1" xmlns="http://www.w3.org/2000/svg" width="200" height="202">
<path d="M0 0 C66 0 132 0 200 0 C200 66.66 200 133.32 200 202 C134 202 68 202 0 202 C0 135.34 0 68.68 0 0 Z " fill="#FDFDFD" transform="translate(0,0)"/>
<path d="M0 0 C2.41066342 -0.0909832 4.82032959 -0.15099081 7.2321167 -0.20306396 C7.95406723 -0.23353317 8.67601776 -0.26400238 9.41984558 -0.2953949 C15.77475594 -0.37432268 20.88738786 1.70140324 25.6618042 5.91412354 C26.11684326 6.49033447 26.57188232 7.06654541 27.04071045 7.66021729 C27.51379639 8.23900635 27.98688232 8.81779541 28.4743042 9.41412354 C30.55464428 12.51663763 30.73649629 15.26740355 30.77679443 18.88873291 C30.79028427 19.85984009 30.80377411 20.83094727 30.81767273 21.83148193 C30.83333031 23.40186218 30.83333031 23.40186218 30.8493042 25.00396729 C30.88223128 27.21360683 30.91544311 29.42324215 30.94891357 31.63287354 C30.99641341 35.12226559 31.04086665 38.61163912 31.08001709 42.10113525 C31.11963657 45.46475822 31.17119388 48.82803414 31.2243042 52.19146729 C31.23692543 53.76184753 31.23692543 53.76184753 31.24980164 55.36395264 C31.26644363 56.33505981 31.28308563 57.30616699 31.30023193 58.30670166 C31.31569313 59.58885559 31.31569313 59.58885559 31.33146667 60.89691162 C31.47184057 63.38659882 31.47184057 63.38659882 33.60321045 66.09771729 C36.01803457 66.59831645 36.01803457 66.59831645 38.60321045 66.09771729 C39.56227295 65.32427979 39.56227295 65.32427979 40.54071045 64.53521729 C42.60321045 63.09771729 42.60321045 63.09771729 45.72821045 63.28521729 C48.60321045 64.09771729 48.60321045 64.09771729 50.60321045 66.09771729 C51.04071045 69.41021729 51.04071045 69.41021729 50.60321045 73.09771729 C47.98987302 76.36438908 45.47124902 78.54216856 41.60321045 80.09771729 C38.9118042 80.32818604 38.9118042 80.32818604 36.04071045 80.28521729 C35.09067139 80.27877197 34.14063232 80.27232666 33.1618042 80.26568604 C30.60321045 80.09771729 30.60321045 80.09771729 27.60321045 79.09771729 C27.71779738 80.53608479 27.84530161 81.97342694 27.97821045 83.41021729 C28.08262451 84.610979 28.08262451 84.610979 28.18914795 85.83599854 C28.49885471 88.36996169 28.49885471 88.36996169 30.60321045 91.09771729 C31.31907053 98.49803704 31.57835265 105.65524544 27.60321045 112.09771729 C23.98704812 116.28485262 20.32806053 119.76461161 14.68743896 120.4541626 C13.10080444 120.44014404 13.10080444 120.44014404 11.4821167 120.42584229 C9.71783325 120.41907471 9.71783325 120.41907471 7.91790771 120.41217041 C6.67968262 120.39090088 5.44145752 120.36963135 4.16571045 120.34771729 C2.89977051 120.33676025 1.63383057 120.32580322 0.32952881 120.31451416 C-5.90808498 120.2405583 -12.11477427 120.07831619 -18.33428955 119.59771729 C-19.35780518 119.52037354 -20.3813208 119.44302979 -21.43585205 119.36334229 C-23.56060715 119.17273101 -25.68065265 118.92653554 -27.79522705 118.64459229 C-34.3916093 118.06641793 -34.3916093 118.06641793 -39.9631958 121.23443604 C-42.31368694 124.08604711 -44.36959962 127.0092338 -46.39678955 130.09771729 C-54.10657635 140.60113128 -54.10657635 140.60113128 -58.39678955 142.09771729 C-64.97384963 142.89810026 -71.51722044 142.30168898 -77.39678955 139.09771729 C-81.30623851 135.70729581 -83.82657586 132.03991062 -85.39678955 127.09771729 C-85.59210205 123.98443604 -85.59210205 123.98443604 -85.52178955 120.78521729 C-85.50374268 119.71658447 -85.4856958 118.64795166 -85.46710205 117.54693604 C-85.44389893 116.73869385 -85.4206958 115.93045166 -85.39678955 115.09771729 C-86.13284424 115.06033447 -86.86889893 115.02295166 -87.6272583 114.98443604 C-97.88130945 114.29360828 -97.88130945 114.29360828 -101.39678955 111.09771729 C-105.08207003 105.69199553 -105.98175993 101.89782938 -105.91436768 95.42779541 C-105.92137695 94.58945663 -105.92838623 93.75111786 -105.93560791 92.88737488 C-105.9531191 90.13422886 -105.9415899 87.38212257 -105.92803955 84.62896729 C-105.93073645 82.70517786 -105.93462051 80.78138976 -105.93963623 78.85760498 C-105.94552196 74.83285498 -105.93699815 70.80846095 -105.91827393 66.78375244 C-105.89548499 61.6355887 -105.90861303 56.4882592 -105.93256378 51.34012604 C-105.94704676 47.36972821 -105.9424043 43.3995268 -105.93205261 39.42912292 C-105.92939224 37.53138631 -105.93263074 35.63363163 -105.94197083 33.73591614 C-105.95217773 31.07934617 -105.9365782 28.42411026 -105.91436768 25.76763916 C-105.9224646 24.99028915 -105.93056152 24.21293915 -105.93890381 23.41203308 C-105.85370147 17.88609067 -104.55754918 14.65383011 -101.39678955 10.09771729 C-96.69672292 6.3768312 -92.94313114 5.0969903 -87.07940674 4.74053955 C-85.79981331 4.66014435 -85.79981331 4.66014435 -84.49436951 4.578125 C-83.57013687 4.52400452 -82.64590424 4.46988403 -81.69366455 4.41412354 C-80.71968216 4.35428284 -79.74569977 4.29444214 -78.74220276 4.23278809 C-75.54396991 4.03772633 -72.34542216 3.84860254 -69.14678955 3.66021729 C-66.93121199 3.52767219 -64.71563583 3.39510362 -62.50006104 3.26251221 C-49.32172071 2.47953222 -36.14158242 1.72401499 -22.95770264 1.04006958 C-21.32343411 0.95513026 -19.68923407 0.86886028 -18.05511475 0.78109741 C-12.03821552 0.46045278 -6.02006944 0.24543867 0 0 Z " fill="#161716" transform="translate(130.39678955078125,35.90228271484375)"/>
<path d="M0 0 C1.17691406 -0.01675781 2.35382813 -0.03351562 3.56640625 -0.05078125 C6.99733506 0.38333627 8.10826574 0.75117451 10.4375 3.3125 C10.79248268 6.37737465 10.90353182 9.07739058 10.828125 12.13671875 C10.82246521 12.99811966 10.81680542 13.85952057 10.81097412 14.74702454 C10.7885813 17.49858148 10.7383808 20.24883663 10.6875 23 C10.6674387 24.86521557 10.64918728 26.73045155 10.6328125 28.59570312 C10.58870713 33.16847042 10.51966057 37.7402645 10.4375 42.3125 C7.79271093 41.29154981 5.4205142 40.3020472 3 38.8125 C-3.46037358 35.0308179 -9.57903823 34.97947889 -16.84179688 35.00976562 C-22.06809359 34.87281279 -25.02808822 33.85218669 -29.05688477 30.47973633 C-33.39800197 27.11426181 -39.54615112 28.00874124 -44.75 27.9375 C-45.76642578 27.90011719 -46.78285156 27.86273438 -47.83007812 27.82421875 C-56.21632012 27.72676726 -60.65453993 30.02158625 -66.9375 35.3125 C-70.15532192 39.27289621 -71.03495814 43.01836644 -70.87109375 48.13671875 C-69.47922899 57.9502462 -62.86156929 63.82582135 -55.4375 69.625 C-53.08311873 71.37370872 -51.59870068 72.30204203 -48.75 73.125 C-45.96237441 74.63828247 -45.92811894 75.59548146 -45 78.5625 C-44.773125 79.36429687 -44.54625 80.16609375 -44.3125 80.9921875 C-43.28091537 84.18365244 -41.54295125 86.62930798 -39.5625 89.3125 C-38.5725 90.7975 -38.5725 90.7975 -37.5625 92.3125 C-38.48869141 92.31636719 -38.48869141 92.31636719 -39.43359375 92.3203125 C-46.58810864 92.64700268 -51.36949084 94.30739577 -56.5625 99.3125 C-59.68395605 103.06720226 -62.49916714 107.03479434 -65.27734375 111.046875 C-67.5625 114.3125 -67.5625 114.3125 -69.5625 116.3125 C-73.05852126 116.76850277 -74.84690776 116.83950656 -77.7265625 114.71875 C-80.16385327 111.52434338 -80.02824872 109.41921153 -80.0625 105.4375 C-80.36084213 98.02919139 -80.36084213 98.02919139 -84.5625 92.3125 C-89.17564829 89.78832452 -93.37976339 88.93442839 -98.5625 88.3125 C-100.50837172 86.36662828 -99.71956792 82.65059438 -99.72363281 79.99462891 C-99.72859772 79.22876968 -99.73356262 78.46291046 -99.73867798 77.67384338 C-99.75333667 75.12890743 -99.76010784 72.58403381 -99.765625 70.0390625 C-99.77137356 68.27647906 -99.77713132 66.51389564 -99.78289795 64.75131226 C-99.7934186 61.05067655 -99.79925424 57.35006263 -99.80273438 53.64941406 C-99.80822029 48.90216544 -99.83224582 44.15520348 -99.86070633 39.40804482 C-99.8793097 35.76554518 -99.88453708 32.12311488 -99.88607025 28.48057175 C-99.88910271 26.73023283 -99.89715111 24.9798953 -99.91025543 23.22960281 C-99.92726768 20.7825655 -99.92544773 18.33623224 -99.91894531 15.88916016 C-99.9281601 15.16280869 -99.93737488 14.43645721 -99.9468689 13.68809509 C-99.90605491 8.79702238 -99.90605491 8.79702238 -98.18566895 6.37072754 C-95.92603178 4.89755355 -94.13895162 4.79771955 -91.453125 4.6171875 C-90.40463379 4.54177734 -89.35614258 4.46636719 -88.27587891 4.38867188 C-87.13296387 4.32228516 -85.99004883 4.25589844 -84.8125 4.1875 C-83.6167334 4.10822266 -82.4209668 4.02894531 -81.18896484 3.94726562 C-70.89643068 3.30290053 -60.59778627 2.98314652 -50.28979492 2.70874023 C-41.21239165 2.45090775 -32.18028457 1.92597861 -23.125 1.25 C-7.35219513 0.09826115 -7.35219513 0.09826115 0 0 Z " fill="#FCFCFC" transform="translate(137.5625,48.6875)"/>
<path d="M0 0 C1.00353516 -0.03287109 2.00707031 -0.06574219 3.04101562 -0.09960938 C10.18356092 -0.15072714 14.97938555 1.2828183 20.8125 5.4375 C21.3075 5.9325 21.3075 5.9325 21.8125 6.4375 C23.80564467 6.53261295 25.79929932 6.62168931 27.79394531 6.67700195 C35.86486598 6.91688319 42.58624418 7.53987383 49.8125 11.4375 C51.545 12.1490625 51.545 12.1490625 53.3125 12.875 C56.92648327 16.57933285 56.76485912 20.28437182 57.33203125 25.3046875 C58.14099888 30.57941954 60.52739365 33.38604935 64.5625 36.6875 C67.86297423 40.72141295 67.25111326 44.41781494 66.8125 49.4375 C64.79427083 49.33984375 62.77604167 49.2421875 60.7578125 49.14453125 C60.11585938 49.24121094 59.47390625 49.33789062 58.8125 49.4375 C56.11726436 53.48035347 56.43498656 56.85849892 56.25390625 61.625 C55.75170799 64.82484731 55.34756041 65.52841888 52.8125 67.4375 C50.49438477 67.80981445 50.49438477 67.80981445 47.75390625 67.80078125 C46.73723877 67.80198975 45.72057129 67.80319824 44.6730957 67.80444336 C43.04053833 67.7774939 43.04053833 67.7774939 41.375 67.75 C40.2614917 67.73654541 39.1479834 67.72309082 38.00073242 67.70922852 C34.60305211 67.64888025 31.20875571 67.55217099 27.8125 67.4375 C26.81025391 67.4055957 25.80800781 67.37369141 24.77539062 67.34082031 C22.053376 67.23182794 19.34226604 67.06737965 16.625 66.875 C15.8194165 66.83866455 15.01383301 66.8023291 14.18383789 66.76489258 C9.70040354 66.36087189 7.39742684 65.49772535 4.375 62.078125 C1.4321442 58.24784022 -0.89644087 54.05703214 -1.4375 49.1875 C-2.11447521 47.03925841 -2.11447521 47.03925841 -5.31640625 46.1796875 C-9.54504691 44.44563287 -12.56756105 41.92089598 -15.875 38.8125 C-16.44371826 38.27979492 -17.01243652 37.74708984 -17.59838867 37.19824219 C-23.01540202 31.93360948 -26.18935064 26.93195032 -26.625 19.25 C-25.78953289 11.96950092 -22.59480434 8.54895111 -17.22265625 3.953125 C-11.6680548 -0.18350718 -6.73803479 0.03821192 0 0 Z " fill="#BEE24F" transform="translate(92.1875,75.5625)"/>
<path d="M0 0 C1.00353516 -0.03287109 2.00707031 -0.06574219 3.04101562 -0.09960938 C10.77362106 -0.15495008 16.70672204 1.5187504 22.39892578 6.95166016 C26.57822214 11.74116097 28.38361463 15.72472523 28.16796875 22.01953125 C26.72625865 31.82632851 18.19860975 38.63888102 10.8125 44.4375 C6.16122586 47.07896433 3.1931894 48.00388836 -2.1875 47.4375 C-7.74881496 45.4654025 -11.59436242 42.83552713 -15.875 38.8125 C-16.44371826 38.27979492 -17.01243652 37.74708984 -17.59838867 37.19824219 C-23.01540202 31.93360948 -26.18935064 26.93195032 -26.625 19.25 C-25.78953289 11.96950092 -22.59480434 8.54895111 -17.22265625 3.953125 C-11.6680548 -0.18350718 -6.73803479 0.03821192 0 0 Z " fill="#171716" transform="translate(92.1875,75.5625)"/>
<path d="M0 0 C3.93991322 0.1533503 3.93991322 0.1533503 7.4375 -0.8125 C11 -1 11 -1 14 1.125 C16 4 16 4 16.125 6.5 C14.64331297 9.79263784 12.6675712 11.56954624 10 14 C9.50886719 14.55558594 9.01773438 15.11117187 8.51171875 15.68359375 C7 17.375 7 17.375 4 20 C-1.63574496 19.80373027 -5.00380168 16.16038204 -8.93359375 12.48828125 C-11.01967832 9.97630418 -11.73800374 8.83547769 -11.875 5.625 C-11 2 -11 2 -9.4375 -0.0625 C-6.02212684 -1.37610506 -3.54714479 -0.69676058 0 0 Z " fill="#F3F3F2" transform="translate(91,90)"/>
<path d="M0 0 C2.1875 -0.3125 2.1875 -0.3125 5 0 C7.875 2.1875 7.875 2.1875 10 5 C10.17937464 8.58749275 9.20216308 9.77473257 6.8125 12.4375 C5.884375 13.283125 4.95625 14.12875 4 15 C3.50886719 15.55558594 3.01773438 16.11117187 2.51171875 16.68359375 C1 18.375 1 18.375 -2 21 C-4.875 20.875 -4.875 20.875 -7 20 C-6.34 19.67 -5.68 19.34 -5 19 C-4.9175 18.05125 -4.835 17.1025 -4.75 16.125 C-4.14925349 10.48269457 -0.8338249 5.79237056 2 1 C1.34 0.67 0.68 0.34 0 0 Z " fill="#C0E051" transform="translate(97,89)"/>
<path d="M0 0 C2.64 0 5.28 0 8 0 C8 0.33 8 0.66 8 1 C7.030625 1.28875 6.06125 1.5775 5.0625 1.875 C1.89335797 2.64214682 1.89335797 2.64214682 1 5 C0.76307995 8.04924878 0.6176244 11.09724003 0.4765625 14.15234375 C-0.06128907 17.36622733 -0.43845347 18.09366025 -3 20 C-5.44506836 20.35644531 -5.44506836 20.35644531 -8.33984375 20.328125 C-9.40396484 20.32296875 -10.46808594 20.3178125 -11.56445312 20.3125 C-13.23411133 20.2815625 -13.23411133 20.2815625 -14.9375 20.25 C-16.01580078 20.24484375 -17.09410156 20.2396875 -18.20507812 20.234375 C-25.50748266 20.16436992 -32.73264574 19.7045344 -40 19 C-40 18.67 -40 18.34 -40 18 C-38.38774536 17.96241577 -38.38774536 17.96241577 -36.74291992 17.92407227 C-32.75646978 17.82992505 -28.77019091 17.72972215 -24.78393555 17.62768555 C-23.05839035 17.58436438 -21.33280307 17.54268727 -19.60717773 17.50268555 C-17.12731236 17.44491474 -14.64765828 17.38123997 -12.16796875 17.31640625 C-11.39599655 17.29969376 -10.62402435 17.28298126 -9.82865906 17.26576233 C-6.64817067 17.17772105 -4.03764416 17.01254805 -1 16 C-1.01160156 15.18015625 -1.02320313 14.3603125 -1.03515625 13.515625 C-1.04417969 12.43796875 -1.05320313 11.3603125 -1.0625 10.25 C-1.07410156 9.18265625 -1.08570313 8.1153125 -1.09765625 7.015625 C-1.01510087 4.46631499 -0.74617558 2.42066409 0 0 Z " fill="#AFC661" transform="translate(148,123)"/>
<path d="M0 0 C15.11785297 -0.28345974 29.95428606 0.52273445 45 2 C45 2.33 45 2.66 45 3 C40.68076 3.05019229 36.36168355 3.08608563 32.04223633 3.10986328 C30.57899003 3.11979663 29.11576289 3.13334793 27.65258789 3.15087891 C18.22740229 3.26081246 9.30036156 2.78810463 0 1 C0 0.67 0 0.34 0 0 Z " fill="#141D02" transform="translate(99,142)"/>
<path d="M0 0 C0.66 0 1.32 0 2 0 C2.0809723 2.43816585 2.14046972 4.87364384 2.1875 7.3125 C2.21263672 8.00279297 2.23777344 8.69308594 2.26367188 9.40429688 C2.33848128 14.56614555 2.33848128 14.56614555 0.5859375 16.8125 C0.06257813 17.204375 -0.46078125 17.59625 -1 18 C-1.7734375 19.3303125 -1.7734375 19.3303125 -2.5625 20.6875 C-3.036875 21.450625 -3.51125 22.21375 -4 23 C-4.66 23 -5.32 23 -6 23 C-6.28875 23.61875 -6.5775 24.2375 -6.875 24.875 C-8 27 -8 27 -10 29 C-12.625 29.125 -12.625 29.125 -15 29 C-14.319375 28.34 -13.63875 27.68 -12.9375 27 C-3.10216304 17.42547821 -3.10216304 17.42547821 0.1875 4.625 C0.13973295 3.08280654 0.08221346 1.54074116 0 0 Z " fill="#B4CE5E" transform="translate(119,90)"/>
<path d="M0 0 C2.53903996 0.35021241 3.82093298 0.84011873 5.75 2.5625 C7.58461055 6.13999057 7.19968583 9.00628343 7 13 C5.02 13.99 5.02 13.99 3 15 C3 15.66 3 16.32 3 17 C-0.1999003 20.01704885 -2.61537866 21.49890042 -7 22 C-6.0919838 20.86800647 -5.17316174 19.74467637 -4.25 18.625 C-3.48429687 17.68527344 -3.48429687 17.68527344 -2.703125 16.7265625 C-1 15 -1 15 1.140625 13.984375 C1.75421875 13.65953125 2.3678125 13.3346875 3 13 C4.1716367 9.63239813 4.1716367 9.63239813 4 6 C2.16641665 3.66545339 2.16641665 3.66545339 0 2 C0 1.34 0 0.68 0 0 Z " fill="#1D2706" transform="translate(102,88)"/>
<path d="M0 0 C0.66 0 1.32 0 2 0 C5.09073385 5.0224425 6.0074183 9.24060861 5 15 C2.63652412 21.1207965 -1.08037089 25.73632144 -6 30 C-6.66 30 -7.32 30 -8 30 C-8 29.01 -8 28.02 -8 27 C-7.071875 26.87625 -7.071875 26.87625 -6.125 26.75 C-3.85938847 26.2182514 -3.85938847 26.2182514 -3.0390625 24.21484375 C-2.69617188 23.48394531 -2.35328125 22.75304687 -2 22 C-1.55140625 21.32582031 -1.1028125 20.65164062 -0.640625 19.95703125 C2.22072085 15.59835181 2.22072085 15.59835181 2.9140625 10.5546875 C2.40134667 8.30319626 1.75845649 6.17952056 1 4 C0.65532474 2.66955351 0.31846736 1.33696202 0 0 Z " fill="#1E2805" transform="translate(115,85)"/>
<path d="M0 0 C0.99 0 1.98 0 3 0 C3 0.66 3 1.32 3 2 C3.99 2.33 4.98 2.66 6 3 C4.79040384 4.37167605 3.55648812 5.72193609 2.3125 7.0625 C1.28576172 8.19365234 1.28576172 8.19365234 0.23828125 9.34765625 C-2 11 -2 11 -4.76953125 10.74609375 C-5.50558594 10.49988281 -6.24164063 10.25367187 -7 10 C-6.34 9.67 -5.68 9.34 -5 9 C-4.34444881 6.47266765 -4.34444881 6.47266765 -4 4 C-3.01 3.67 -2.02 3.34 -1 3 C-0.67 2.01 -0.34 1.02 0 0 Z " fill="#BBD959" transform="translate(97,99)"/>
<path d="M0 0 C-0.33 0.66 -0.66 1.32 -1 2 C-2.11375 1.525625 -3.2275 1.05125 -4.375 0.5625 C-11.92205695 -2.013951 -20.10439686 -1.75299623 -28 -2 C-28.33 -2.66 -28.66 -3.32 -29 -4 C-8.45840354 -6.00273799 -8.45840354 -6.00273799 0 0 Z " fill="#F1F9D0" transform="translate(142,85)"/>
<path d="M0 0 C0.33 0.66 0.66 1.32 1 2 C-1.52956528 5.0916909 -4.22454612 5.90931332 -8 7 C-8 9.64 -8 12.28 -8 15 C-10.0343459 13.58480285 -10.90410393 12.45017877 -11.421875 10.01953125 C-11.66273952 8.01823046 -11.83532741 6.0090056 -12 4 C-11.38511719 3.87882812 -10.77023438 3.75765625 -10.13671875 3.6328125 C-9.32847656 3.46523437 -8.52023438 3.29765625 -7.6875 3.125 C-6.88699219 2.96257812 -6.08648437 2.80015625 -5.26171875 2.6328125 C-2.74698882 2.05521001 -2.74698882 2.05521001 0 0 Z " fill="#BED569" transform="translate(103,119)"/>
<path d="M0 0 C1.65 0 3.3 0 5 0 C3.87888742 6.53982336 2.53753445 10.06543605 -3 14 C-3.33 13.34 -3.66 12.68 -4 12 C-2.78515625 9.3984375 -2.78515625 9.3984375 -1.0625 6.375 C-0.21365234 4.87066406 -0.21365234 4.87066406 0.65234375 3.3359375 C1.09707031 2.56507812 1.54179688 1.79421875 2 1 C1.34 0.67 0.68 0.34 0 0 Z " fill="#C7DB83" transform="translate(97,89)"/>
<path d="M0 0 C0.99 0.33 1.98 0.66 3 1 C3.80859375 2.85546875 3.80859375 2.85546875 4.4375 5.1875 C5.69422809 9.34793141 7.4013695 12.4792748 10 16 C10.66 16.99 11.32 17.98 12 19 C9.69 19 7.38 19 5 19 C5.99 18.67 6.98 18.34 8 18 C7.56042969 17.65195313 7.12085937 17.30390625 6.66796875 16.9453125 C4.35361217 14.24613316 3.42241171 11.19467552 2.3125 7.875 C2.08755859 7.22917969 1.86261719 6.58335937 1.63085938 5.91796875 C0 1.18897226 0 1.18897226 0 0 Z " fill="#ECF4CD" transform="translate(88,122)"/>
<path d="M0 0 C2.79192205 -0.05380578 5.5828141 -0.09357669 8.375 -0.125 C9.1690625 -0.14175781 9.963125 -0.15851563 10.78125 -0.17578125 C12.85492015 -0.19335473 14.92883241 -0.10335168 17 0 C17.66 0.66 18.32 1.32 19 2 C14.05 2 9.1 2 4 2 C3.67 3.32 3.34 4.64 3 6 C2.01 4.02 1.02 2.04 0 0 Z " fill="#C0D76F" transform="translate(115,83)"/>
<path d="M0 0 C0.99 0.33 1.98 0.66 3 1 C2.66226563 1.49628906 2.32453125 1.99257812 1.9765625 2.50390625 C-0.94601488 6.95534637 -2.81021767 10.80822254 -4 16 C-5.32 15.67 -6.64 15.34 -8 15 C-7.34 14.67 -6.68 14.34 -6 14 C-5.6451046 12.00371336 -5.31421071 10.00309329 -5 8 C-3.47457627 4.23728814 -3.47457627 4.23728814 -1 3 C-0.67 2.01 -0.34 1.02 0 0 Z " fill="#F7FED9" transform="translate(96,92)"/>
<path d="M0 0 C2.53903996 0.35021241 3.82093298 0.84011873 5.75 2.5625 C7.58461055 6.13999057 7.19968583 9.00628343 7 13 C5.02 13.99 5.02 13.99 3 15 C3.37125 14.484375 3.7425 13.96875 4.125 13.4375 C5.43041882 9.80097615 4.36868264 7.51946963 3 4 C2.01 3.34 1.02 2.68 0 2 C0 1.34 0 0.68 0 0 Z " fill="#151B06" transform="translate(102,88)"/>
<path d="M0 0 C0.66 0 1.32 0 2 0 C2.38873828 1.95565258 2.76060833 3.91466504 3.125 5.875 C3.33382812 6.96554688 3.54265625 8.05609375 3.7578125 9.1796875 C3.83773437 10.11039063 3.91765625 11.04109375 4 12 C3.34 12.66 2.68 13.32 2 14 C-0.3992233 9.35150485 -0.19957409 5.08913926 0 0 Z " fill="#1E2A05" transform="translate(148,92)"/>
<path d="M0 0 C0.66 0 1.32 0 2 0 C5.16727335 5.1468192 5.35050464 9.158256 5 15 C4.67 15 4.34 15 4 15 C3.52029877 13.25014646 3.04126076 11.50011109 2.5625 9.75 C2.29566406 8.77546875 2.02882813 7.8009375 1.75390625 6.796875 C1.14455416 4.53627347 0.55761745 2.27377991 0 0 Z " fill="#313E11" transform="translate(115,85)"/>
<path d="M0 0 C0.66 0 1.32 0 2 0 C2.30518762 1.5561547 2.56775915 3.12070108 2.8125 4.6875 C2.96332031 5.55761719 3.11414063 6.42773438 3.26953125 7.32421875 C3 10 3 10 -2 15 C-1.34 10.05 -0.68 5.1 0 0 Z " fill="#0F1304" transform="translate(149,129)"/>
<path d="M0 0 C2.64 0 5.28 0 8 0 C8 0.33 8 0.66 8 1 C7.030625 1.28875 6.06125 1.5775 5.0625 1.875 C1.89335797 2.64214682 1.89335797 2.64214682 1 5 C0.77141886 7.0374763 0.58975722 9.08040303 0.4375 11.125 C0.35371094 12.22070312 0.26992187 13.31640625 0.18359375 14.4453125 C0.12300781 15.28835937 0.06242188 16.13140625 0 17 C-0.33 17 -0.66 17 -1 17 C-1.02709444 14.91673869 -1.04643873 12.83337559 -1.0625 10.75 C-1.07410156 9.58984375 -1.08570313 8.4296875 -1.09765625 7.234375 C-1.01782092 4.59022872 -0.78643778 2.50173909 0 0 Z " fill="#AFC860" transform="translate(148,123)"/>
<path d="M0 0 C1.9375 0.625 1.9375 0.625 4 2 C4.875 4.9375 4.875 4.9375 5 8 C4.01 9.485 4.01 9.485 3 11 C2.34 11 1.68 11 1 11 C1 9.68 1 8.36 1 7 C1.66 7 2.32 7 3 7 C2.67 6.01 2.34 5.02 2 4 C1.34 3.67 0.68 3.34 0 3 C0 2.01 0 1.02 0 0 Z " fill="#ACC062" transform="translate(102,90)"/>
<path d="M0 0 C6.5404266 0.51297464 9.46925843 2.46925843 14 7 C13.34 7.66 12.68 8.32 12 9 C11.401875 8.360625 10.80375 7.72125 10.1875 7.0625 C8.09189663 4.79689611 8.09189663 4.79689611 5 4 C5 3.34 5 2.68 5 2 C3.35 1.67 1.7 1.34 0 1 C0 0.67 0 0.34 0 0 Z " fill="#CAE07E" transform="translate(134,85)"/>
<path d="M0 0 C0.66 0 1.32 0 2 0 C2 0.99 2 1.98 2 3 C-2.55426184 5.66590937 -5.73946963 6.31563182 -11 6 C-11 5.67 -11 5.34 -11 5 C-10.37351562 4.80664062 -9.74703125 4.61328125 -9.1015625 4.4140625 C-8.28429687 4.15367188 -7.46703125 3.89328125 -6.625 3.625 C-5.81289062 3.36976562 -5.00078125 3.11453125 -4.1640625 2.8515625 C-1.83540815 2.10145717 -1.83540815 2.10145717 0 0 Z " fill="#2D380E" transform="translate(101,117)"/>
<path d="M0 0 C1.37562854 1.28965176 2.70766393 2.62689293 4 4 C4 4.66 4 5.32 4 6 C4.99 6.33 5.98 6.66 7 7 C6.01 7.33 5.02 7.66 4 8 C2.35 6.35 0.7 4.7 -1 3 C-0.67 2.01 -0.34 1.02 0 0 Z " fill="#182303" transform="translate(152,105)"/>
<path d="M0 0 C0.99 0.33 1.98 0.66 3 1 C2.74438677 3.3431213 2.40729228 5.67843403 2 8 C1.01 8.495 1.01 8.495 0 9 C0 6.03 0 3.06 0 0 Z " fill="#F5FADF" transform="translate(158,115)"/>
<path d="M0 0 C1.42944945 2.35438733 2.08661261 3.48032433 1.625 6.25 C1.41875 6.8275 1.2125 7.405 1 8 C-0.32 7.67 -1.64 7.34 -3 7 C-2.34 6.67 -1.68 6.34 -1 6 C-0.34227572 2.97065509 -0.34227572 2.97065509 0 0 Z " fill="#E9F2C6" transform="translate(91,100)"/>
<path d="M0 0 C0.66 0.33 1.32 0.66 2 1 C0.02 3.31 -1.96 5.62 -4 8 C-4.66 7.67 -5.32 7.34 -6 7 C-4.02 4.69 -2.04 2.38 0 0 Z " fill="#3F3F3F" transform="translate(83,145)"/>
<path d="M0 0 C0.33 0.66 0.66 1.32 1 2 C0.01 3.485 0.01 3.485 -1 5 C-4.3 4.67 -7.6 4.34 -11 4 C-11 3.67 -11 3.34 -11 3 C-10.37351563 2.95101562 -9.74703125 2.90203125 -9.1015625 2.8515625 C-8.28429687 2.77679688 -7.46703125 2.70203125 -6.625 2.625 C-5.81289062 2.55539063 -5.00078125 2.48578125 -4.1640625 2.4140625 C-1.79665809 2.17107412 -1.79665809 2.17107412 0 0 Z " fill="#374312" transform="translate(147,140)"/>
<path d="M0 0 C0.99 0.495 0.99 0.495 2 1 C1.01 1.495 1.01 1.495 0 2 C0 1.34 0 0.68 0 0 Z M-5 2 C-2.375 1.8125 -2.375 1.8125 0 2 C-0.99 3.485 -0.99 3.485 -2 5 C-4.625 5.1875 -4.625 5.1875 -7 5 C-6.34 4.01 -5.68 3.02 -5 2 Z " fill="#B7D357" transform="translate(111,114)"/>
<path d="M0 0 C0.33 0.99 0.66 1.98 1 3 C1.99 3 2.98 3 4 3 C3.67 3.99 3.34 4.98 3 6 C1.35 5.67 -0.3 5.34 -2 5 C-1.34 4.67 -0.68 4.34 0 4 C0 2.68 0 1.36 0 0 Z " fill="#A5B764" transform="translate(92,104)"/>
<path d="M0 0 C0.66 0.33 1.32 0.66 2 1 C-0.31 3.31 -2.62 5.62 -5 8 C-5.33 7.34 -5.66 6.68 -6 6 C-4 4 -2 2 0 0 Z " fill="#3A3A3A" transform="translate(33,43)"/>
</svg>
