<?xml version="1.0" encoding="UTF-8"?>
<svg version="1.1" xmlns="http://www.w3.org/2000/svg" width="180" height="181">
<path d="M0 0 C59.4 0 118.8 0 180 0 C180 59.73 180 119.46 180 181 C120.6 181 61.2 181 0 181 C0 121.27 0 61.54 0 0 Z " fill="#FDFDFD" transform="translate(0,0)"/>
<path d="M0 0 C2.20421204 1.69271709 4.33679821 3.44749909 6.46484375 5.234375 C7.47546875 5.976875 8.48609375 6.719375 9.52734375 7.484375 C20.03424143 16.41960377 28.35611473 32.30547468 29.75024414 46.04760742 C29.86502388 48.97015245 29.87472767 51.8724393 29.83984375 54.796875 C29.85144531 55.77333984 29.86304688 56.74980469 29.875 57.75585938 C29.84243719 65.86942586 28.11012592 72.30347152 24.27734375 79.421875 C22.5015335 82.81082585 21.99226773 85.35925162 22.46484375 89.234375 C24.51191989 91.28145114 28.34657043 91.16232532 31.1171875 91.63671875 C33.46484375 92.234375 33.46484375 92.234375 35.46484375 94.234375 C35.92327696 97.74902961 36.0047018 99.51974276 33.8359375 102.390625 C29.98437019 105.38558343 26.4040035 104.89320364 21.68359375 104.765625 C17.54641328 104.08278939 15.45307863 102.66325936 12.5390625 99.7421875 C11.46484375 98.234375 11.46484375 98.234375 11.46484375 96.234375 C10.80484375 96.234375 10.14484375 96.234375 9.46484375 96.234375 C9.46484375 96.894375 9.46484375 97.554375 9.46484375 98.234375 C8.80484375 98.234375 8.14484375 98.234375 7.46484375 98.234375 C7.4596875 98.94980469 7.45453125 99.66523437 7.44921875 100.40234375 C6.67102679 110.42805013 1.7718685 115.14266212 -5.09326172 121.80371094 C-6.94569361 123.64171481 -8.61679996 125.60425073 -10.28515625 127.609375 C-13.09924337 130.85849009 -16.14153168 133.66489498 -19.42578125 136.43359375 C-20.925184 137.71363943 -22.39101638 139.0334689 -23.83203125 140.37890625 C-29.09777094 145.28240546 -32.69298005 147.81522851 -39.97265625 148.609375 C-46.74587642 147.89640446 -51.45594198 143.70093092 -56.28515625 139.171875 C-56.79393311 138.69580811 -57.30270996 138.21974121 -57.8269043 137.72924805 C-65.76174741 130.25805785 -73.60260713 122.65763927 -80.53515625 114.234375 C-80.94233887 113.74098633 -81.34952148 113.24759766 -81.76904297 112.73925781 C-88.43781776 104.60801134 -94.23115401 96.33054986 -99.53515625 87.234375 C-99.94378906 86.59242187 -100.35242188 85.95046875 -100.7734375 85.2890625 C-109.64806004 71.10337241 -110.10214371 54.16708728 -106.640625 38.26953125 C-104.08906374 28.09502812 -98.4601885 19.02111941 -91.53515625 11.234375 C-91.02726562 10.64527344 -90.519375 10.05617188 -89.99609375 9.44921875 C-66.83768375 -15.59152506 -27.86070028 -19.40375428 0 0 Z " fill="#FCFCFB" transform="translate(126.53515625,25.765625)"/>
<path d="M0 0 C2.20421204 1.69271709 4.33679821 3.44749909 6.46484375 5.234375 C7.47546875 5.976875 8.48609375 6.719375 9.52734375 7.484375 C20.03424143 16.41960377 28.35611473 32.30547468 29.75024414 46.04760742 C29.86502388 48.97015245 29.87472767 51.8724393 29.83984375 54.796875 C29.85144531 55.77333984 29.86304688 56.74980469 29.875 57.75585938 C29.84243719 65.86942586 28.11012592 72.30347152 24.27734375 79.421875 C22.5015335 82.81082585 21.99226773 85.35925162 22.46484375 89.234375 C24.51191989 91.28145114 28.34657043 91.16232532 31.1171875 91.63671875 C33.46484375 92.234375 33.46484375 92.234375 35.46484375 94.234375 C35.92327696 97.74902961 36.0047018 99.51974276 33.8359375 102.390625 C29.98006539 105.38893083 26.39738677 104.89850093 21.671875 104.75 C16.85311331 103.97524173 14.39110339 102.03939128 11.46484375 98.234375 C8.34218222 93.90294126 7.79566951 89.75679904 7.89453125 84.53125 C8.61338747 80.37567023 10.2037603 76.97884619 11.96484375 73.171875 C16.9019127 62.32350837 17.69660384 49.85701913 13.49609375 38.51953125 C6.91254717 23.93099054 -2.58922787 12.22258472 -17.66015625 5.921875 C-19.2783309 5.34003134 -20.90298425 4.77571205 -22.53515625 4.234375 C-23.73140625 3.821875 -24.92765625 3.409375 -26.16015625 2.984375 C-39.4694417 -0.00013143 -55.03725317 2.10211279 -66.984375 8.515625 C-76.39307924 14.85533383 -84.25180236 23.08442354 -89.22265625 33.296875 C-89.53009766 33.90853516 -89.83753906 34.52019531 -90.15429688 35.15039062 C-95.2740909 45.51321222 -95.42168878 59.69098083 -91.97265625 70.671875 C-91.21447239 72.54890657 -90.40010291 74.40408608 -89.53515625 76.234375 C-89.06078125 77.26433594 -88.58640625 78.29429688 -88.09765625 79.35546875 C-81.61829771 92.3297612 -72.06720139 102.94562988 -62.1640625 113.39453125 C-59.53515625 116.234375 -59.53515625 116.234375 -57.43359375 118.88671875 C-55.62551509 121.12263495 -53.79473349 122.88970025 -51.59765625 124.734375 C-49.14749601 126.80410371 -47.05984822 128.76626731 -44.91015625 131.171875 C-42.69772057 133.46346722 -42.69772057 133.46346722 -39.7421875 133.6640625 C-35.44782937 133.08869174 -33.92956858 131.42810599 -30.84765625 128.421875 C-30.33436768 127.92776123 -29.8210791 127.43364746 -29.29223633 126.92456055 C-27.6917166 125.3755518 -26.11305234 123.80638708 -24.53515625 122.234375 C-23.54378732 121.26738925 -22.55162336 120.30121778 -21.55859375 119.3359375 C-16.79629571 114.65235513 -12.20242229 109.88218665 -7.875 104.79296875 C-6.81451489 103.55934321 -5.68547374 102.38469249 -4.53515625 101.234375 C-1.03515625 100.984375 -1.03515625 100.984375 2.46484375 101.234375 C4.46484375 103.234375 4.46484375 103.234375 4.90625 106.984375 C4.78136031 111.63572894 2.6714538 114.11884375 -0.59765625 117.234375 C-1.61670556 118.26872388 -2.63493535 119.30388079 -3.65234375 120.33984375 C-4.39822754 121.08113525 -4.39822754 121.08113525 -5.15917969 121.83740234 C-6.95099924 123.65656336 -8.58667044 125.58749664 -10.22265625 127.546875 C-13.05989987 130.81543356 -16.11875273 133.6456918 -19.42578125 136.43359375 C-20.925184 137.71363943 -22.39101638 139.0334689 -23.83203125 140.37890625 C-29.09777094 145.28240546 -32.69298005 147.81522851 -39.97265625 148.609375 C-46.74587642 147.89640446 -51.45594198 143.70093092 -56.28515625 139.171875 C-56.79393311 138.69580811 -57.30270996 138.21974121 -57.8269043 137.72924805 C-65.76174741 130.25805785 -73.60260713 122.65763927 -80.53515625 114.234375 C-80.94233887 113.74098633 -81.34952148 113.24759766 -81.76904297 112.73925781 C-88.43781776 104.60801134 -94.23115401 96.33054986 -99.53515625 87.234375 C-99.94378906 86.59242187 -100.35242188 85.95046875 -100.7734375 85.2890625 C-109.64806004 71.10337241 -110.10214371 54.16708728 -106.640625 38.26953125 C-104.08906374 28.09502812 -98.4601885 19.02111941 -91.53515625 11.234375 C-91.02726562 10.64527344 -90.519375 10.05617188 -89.99609375 9.44921875 C-66.83768375 -15.59152506 -27.86070028 -19.40375428 0 0 Z " fill="#181818" transform="translate(126.53515625,25.765625)"/>
<path d="M0 0 C6.71029353 4.14039388 12.01288573 8.97736374 14.55078125 16.671875 C15.9629586 24.4887759 15.9676797 32.03095267 11.5546875 38.8125 C6.34335993 45.25742686 0.37574718 50.18473865 -8.07421875 51.16015625 C-15.63479682 51.50262146 -21.11675771 50.63180283 -27.0625 45.8125 C-32.29518333 40.83531878 -36.51569815 35.62739664 -37.56640625 28.296875 C-37.70285151 19.60076388 -36.94792651 13.45533372 -31.0625 6.8125 C-28.55221541 4.50900131 -25.98369448 2.56285135 -23.0625 0.8125 C-22.17884766 0.24982422 -22.17884766 0.24982422 -21.27734375 -0.32421875 C-15.48931891 -2.58022138 -5.8251054 -2.30905079 0 0 Z " fill="#161715" transform="translate(98.0625,61.1875)"/>
<path d="M0 0 C7.34571872 2.2955371 13.1721246 4.94549195 19 10 C19.763125 10.61875 20.52625 11.2375 21.3125 11.875 C23.77431572 14.97506424 25.25394533 18.09983302 26 22 C25.42190703 24.35684056 24.74386068 26.69011685 24 29 C23.71161206 33.40105079 23.45721415 37.91378228 24.57421875 42.20703125 C25 44 25 44 24 46 C23.34 46 22.68 46 22 46 C21.34 49.96 20.68 53.92 20 58 C19.67 58 19.34 58 19 58 C18.855625 56.865625 18.71125 55.73125 18.5625 54.5625 C18.38828522 51.19222799 18.38828522 51.19222799 17 50 C13.75511206 49.32961907 13.75511206 49.32961907 10 50 C6.56267922 52.60121572 3.85598678 55.90238894 1.21484375 59.2890625 C-1 61 -1 61 -4.171875 60.9453125 C-15.43545606 58.36305047 -21.54208976 55.01085934 -27.7734375 45.24609375 C-29.9470658 41.26572346 -31 38.597236 -31 34 C-30.24976562 33.98582031 -29.49953125 33.97164062 -28.7265625 33.95703125 C-20.39077599 33.5685878 -13.47647046 32.0600546 -7.15234375 26.32421875 C-1.87914898 20.48094887 0.48761139 15.06640901 0.1875 7.125 C0.17396484 6.43664062 0.16042969 5.74828125 0.14648438 5.0390625 C0.1114837 3.35902999 0.05768954 1.6794065 0 0 Z " fill="#BFE24E" transform="translate(112,78)"/>
<path d="M0 0 C3.83019557 1.98602733 7.04532347 4.09064695 9 8 C9.53615769 13.5402961 9.30061996 17.31524909 6 22 C0.8712958 25.82138744 -2.64710128 26.81972887 -9 26 C-12.83606863 23.69835882 -15.2590659 21.12326498 -17 17 C-17.76828237 12.92042061 -17.9255534 9.52277594 -15.72265625 5.8984375 C-10.98931524 0.2739785 -7.31362975 -0.89881308 0 0 Z " fill="#F8F8F7" transform="translate(91,73)"/>
<path d="M0 0 C3.96673223 2.64448815 5.06934795 5.38058164 6 10 C5.42190703 12.35684056 4.74386068 14.69011685 4 17 C3.71161206 21.40105079 3.45721415 25.91378228 4.57421875 30.20703125 C5 32 5 32 4 34 C3.34 34 2.68 34 2 34 C1.34 37.96 0.68 41.92 0 46 C-0.33 46 -0.66 46 -1 46 C-1.144375 44.865625 -1.28875 43.73125 -1.4375 42.5625 C-1.61171478 39.19222799 -1.61171478 39.19222799 -3 38 C-6.24488794 37.32961907 -6.24488794 37.32961907 -10 38 C-13.43732078 40.60121572 -16.14401322 43.90238894 -18.78515625 47.2890625 C-21 49 -21 49 -24.171875 48.9453125 C-35.50140009 46.34793229 -41.74227267 42.77769895 -48 33 C-47.01 33 -46.02 33 -45 33 C-43 35 -43 35 -43 38 C-42.236875 38.144375 -41.47375 38.28875 -40.6875 38.4375 C-38 39 -38 39 -35 40 C-35 40.66 -35 41.32 -35 42 C-34.01 42.33 -33.02 42.66 -32 43 C-32 43.66 -32 44.32 -32 45 C-28.04 45.33 -24.08 45.66 -20 46 C-19.67 44.35 -19.34 42.7 -19 41 C-17.625 39.1875 -17.625 39.1875 -16 38 C-15.01 38 -14.02 38 -13 38 C-13 37.34 -13 36.68 -13 36 C-9.90468901 34.4523445 -6.6333237 34.55590549 -3.21484375 34.28125 C-1.02929332 34.2334259 -1.02929332 34.2334259 0 33 C-0.00755854 29.44370665 -0.07851494 25.89914308 -0.21484375 22.34570312 C-0.2997221 17.85872503 -0.21344657 15.41221646 3 12 C3.65786774 7.72385969 2.29566637 5.53915232 0 2 C0 1.34 0 0.68 0 0 Z " fill="#BAD269" transform="translate(132,90)"/>
<path d="M0 0 C2 2 2 2 2.3125 5.75 C2.1789982 9.84405517 1.40230153 12.5902817 -1 16 C-6.2093065 19.88144406 -9.58400142 20.45024551 -16 20 C-15.01 19.34 -14.02 18.68 -13 18 C-12.9175 16.9275 -12.835 15.855 -12.75 14.75 C-11.8380425 10.19021249 -10.41739119 8.97671999 -6.85546875 6.22265625 C-4.664961 4.77922694 -2.51113861 3.76095109 0 3 C0 2.01 0 1.02 0 0 Z " fill="#B8CA77" transform="translate(98,79)"/>
<path d="M0 0 C4.71403788 0.47939368 8.66579301 0.96834048 13 3 C13 3.66 13 4.32 13 5 C13.9075 5.2475 14.815 5.495 15.75 5.75 C20.52527378 7.58664376 23.19839652 10.79759478 26 15 C26 15.66 26 16.32 26 17 C26.99 17 27.98 17 29 17 C28.34 18.98 27.68 20.96 27 23 C26.34 23 25.68 23 25 23 C24.67 21.824375 24.34 20.64875 24 19.4375 C21.49445557 12.70832354 15.28675577 8.14337788 9 5 C6.90115845 4.21093171 4.79953443 3.45398044 2.671875 2.74609375 C1 2 1 2 0 0 Z " fill="#F3F9D9" transform="translate(112,77)"/>
<path d="M0 0 C1.9375 0.75 1.9375 0.75 4 2 C4.75 4.125 4.75 4.125 5 6 C5.763125 6.144375 6.52625 6.28875 7.3125 6.4375 C10 7 10 7 13 8 C13 8.66 13 9.32 13 10 C13.99 10.33 14.98 10.66 16 11 C16 11.66 16 12.32 16 13 C19.96 13.33 23.92 13.66 28 14 C27.67 14.99 27.34 15.98 27 17 C16.14474957 15.26194024 8.67071283 13.18649487 2 4.1875 C0 1 0 1 0 0 Z " fill="#C7DD7C" transform="translate(84,122)"/>
<path d="M0 0 C1.51288638 4.35078436 0.21322655 6.85935186 -1.68359375 10.87109375 C-3.66817388 14.08057793 -5.64364088 15.32182044 -9 17 C-9.66 17 -10.32 17 -11 17 C-11 17.66 -11 18.32 -11 19 C-14.96 19.495 -14.96 19.495 -19 20 C-19 19.34 -19 18.68 -19 18 C-18.34773438 17.72027344 -17.69546875 17.44054687 -17.0234375 17.15234375 C-8.45663067 13.22273177 -3.81121425 8.68109911 0 0 Z " fill="#B0C861" transform="translate(112,93)"/>
<path d="M0 0 C0.33 1.32 0.66 2.64 1 4 C0.30132812 4.44730469 -0.39734375 4.89460938 -1.1171875 5.35546875 C-2.02726562 5.96003906 -2.93734375 6.56460938 -3.875 7.1875 C-4.77992187 7.77917969 -5.68484375 8.37085937 -6.6171875 8.98046875 C-9.27698853 11.23475913 -10.09753449 12.66502687 -11 16 C-11 17.32 -11 18.64 -11 20 C-13.3431213 19.74438677 -15.67843403 19.40729228 -18 19 C-18.33 18.34 -18.66 17.68 -19 17 C-18.360625 16.896875 -17.72125 16.79375 -17.0625 16.6875 C-16.0415625 16.3471875 -16.0415625 16.3471875 -15 16 C-14.67 15.01 -14.34 14.02 -14 13 C-13.34 13 -12.68 13 -12 13 C-11.855625 12.38125 -11.71125 11.7625 -11.5625 11.125 C-11 9 -11 9 -10 7 C-9.01 7 -8.02 7 -7 7 C-6.62875 6.0409375 -6.62875 6.0409375 -6.25 5.0625 C-5 3 -5 3 -2.9375 2.375 C-2.298125 2.25125 -1.65875 2.1275 -1 2 C-0.67 1.34 -0.34 0.68 0 0 Z " fill="#ECF3CD" transform="translate(97,78)"/>
<path d="M0 0 C0.66 0.33 1.32 0.66 2 1 C2.53082838 5.65949359 2.98822532 10.04001979 0.828125 14.32421875 C-1.01831267 16.49158487 -2.42881651 17.75828511 -5 19 C-8.8108636 19.26052821 -12.27561547 18.80144983 -16 18 C-16 17.67 -16 17.34 -16 17 C-15.40832031 16.91363281 -14.81664063 16.82726562 -14.20703125 16.73828125 C-10.23126869 16.03133489 -7.43678154 15.29738317 -4.0625 13 C-1.23989264 8.89438929 -0.63492171 4.88036839 0 0 Z " fill="#1A2305" transform="translate(100,82)"/>
<path d="M0 0 C1.32 0 2.64 0 4 0 C4.375 2.6875 4.375 2.6875 4 6 C1.25 8.875 1.25 8.875 -2 11 C-3.32 11 -4.64 11 -6 11 C-5.67 9.02 -5.34 7.04 -5 5 C-4.01 4.67 -3.02 4.34 -2 4 C-0.79117904 1.99983534 -0.79117904 1.99983534 0 0 Z " fill="#C0E054" transform="translate(93,86)"/>
<path d="M0 0 C0.66 0 1.32 0 2 0 C1.67 1.32 1.34 2.64 1 4 C0.34 4 -0.32 4 -1 4 C-1.19401633 5.81181405 -1.38004375 7.62448532 -1.5625 9.4375 C-1.66691406 10.44683594 -1.77132812 11.45617187 -1.87890625 12.49609375 C-1.91886719 13.32238281 -1.95882812 14.14867188 -2 15 C-1.67 15.33 -1.34 15.66 -1 16 C-0.95907063 18.33297433 -0.95758277 20.66705225 -1 23 C-1.99 22.67 -2.98 22.34 -4 22 C-5.01173798 18.96478606 -5.16573514 16.80266921 -5.1875 13.625 C-5.20167969 12.68914062 -5.21585938 11.75328125 -5.23046875 10.7890625 C-4.98668108 7.83881846 -4.23112508 5.67635888 -3 3 C-2.01 3 -1.02 3 0 3 C0 2.01 0 1.02 0 0 Z " fill="#182105" transform="translate(140,99)"/>
<path d="M0 0 C7.21049779 2.25328056 13.42068909 4.77871974 19 10 C19.33 10.66 19.66 11.32 20 12 C18.02 12 16.04 12 14 12 C13.67 11.01 13.34 10.02 13 9 C12.34 8.67 11.68 8.34 11 8 C11 7.34 11 6.68 11 6 C8.03 6 5.06 6 2 6 C1.34 4.02 0.68 2.04 0 0 Z " fill="#C5D97E" transform="translate(112,78)"/>
<path d="M0 0 C-0.33 0.66 -0.66 1.32 -1 2 C-2.051875 2.309375 -2.051875 2.309375 -3.125 2.625 C-6.91501879 4.43761768 -8.84886368 7.07995873 -11.44921875 10.3203125 C-11.96097656 10.87460938 -12.47273438 11.42890625 -13 12 C-13.66 12 -14.32 12 -15 12 C-14.85293654 7.14690588 -12.33133578 4.58051684 -8.98828125 1.3828125 C-5.99800719 -0.69686729 -3.51073453 -0.5015335 0 0 Z " fill="#0F1504" transform="translate(128,128)"/>
<path d="M0 0 C0 0.33 0 0.66 0 1 C-0.825 1.144375 -1.65 1.28875 -2.5 1.4375 C-7.00767991 3.4498571 -9.25327839 6.34586381 -12.36328125 10.1015625 C-12.90339844 10.72804687 -13.44351563 11.35453125 -14 12 C-14.33 12 -14.66 12 -15 12 C-15.3327958 8.33924624 -15.46170299 6.60499012 -13.1875 3.625 C-11 2 -11 2 -8 2 C-8 1.34 -8 0.68 -8 0 C-5.13822943 -1.43088528 -3.06624227 -0.59991697 0 0 Z " fill="#BAD65F" transform="translate(127,126)"/>
<path d="M0 0 C0.33 0 0.66 0 1 0 C1.8125 2.6875 1.8125 2.6875 2 6 C-0.51590305 9.16284955 -3.10574496 11.77609127 -7 13 C-9.69085704 13.15035617 -12.30014607 13.08999513 -15 13 C-14.01 12.34 -13.02 11.68 -12 11 C-11.63557767 9.33985384 -11.30027117 7.67293936 -11 6 C-10.34 5.67 -9.68 5.34 -9 5 C-9.33 6.98 -9.66 8.96 -10 11 C-6.56661484 9.79367548 -4.49635415 8.61522816 -2 6 C-1.34 6 -0.68 6 0 6 C0 4.02 0 2.04 0 0 Z " fill="#B0C765" transform="translate(97,86)"/>
<path d="M0 0 C1.32 0.33 2.64 0.66 4 1 C3.67 1.66 3.34 2.32 3 3 C2.34 3 1.68 3 1 3 C0.34 6.96 -0.32 10.92 -1 15 C-1.33 15 -1.66 15 -2 15 C-2.020625 13.906875 -2.04125 12.81375 -2.0625 11.6875 C-2.56114043 8.04267663 -2.56114043 8.04267663 -4.625 6.8671875 C-6.78223035 5.93575266 -6.78223035 5.93575266 -10 5 C-10 4.67 -10 4.34 -10 4 C-6.97265625 3.75585938 -6.97265625 3.75585938 -3.9453125 3.51171875 C-1.60480784 3.12606964 -1.60480784 3.12606964 0 0 Z " fill="#B6CA75" transform="translate(133,121)"/>
<path d="M0 0 C3.96 0 7.92 0 12 0 C12 0.66 12 1.32 12 2 C8.62182575 2.84454356 6.32534757 3.10844919 3 2 C3 4.31 3 6.62 3 9 C0.23776722 6.23776722 0.42143709 3.79293383 0 0 Z " fill="#BFD96F" transform="translate(81,112)"/>
<path d="M0 0 C1.9375 0.75 1.9375 0.75 4 2 C4.75 4.125 4.75 4.125 5 6 C5.763125 6.144375 6.52625 6.28875 7.3125 6.4375 C10 7 10 7 13 8 C13 8.66 13 9.32 13 10 C13.99 10.33 14.98 10.66 16 11 C15.01 11.33 14.02 11.66 13 12 C12.67 11.01 12.34 10.02 12 9 C11.13375 9.165 10.2675 9.33 9.375 9.5 C5.35540882 8.90450501 4.97543556 8.20201035 2.625 5.0625 C0 1.24615385 0 1.24615385 0 0 Z " fill="#C5DD6C" transform="translate(84,122)"/>
<path d="M0 0 C0.33 0 0.66 0 1 0 C1.60754437 8.7351379 1.21412055 14.79334053 -4 22 C-4.33 22 -4.66 22 -5 22 C-5.25 19.8125 -5.25 19.8125 -5 17 C-4.360625 16.319375 -3.72125 15.63875 -3.0625 14.9375 C0.13767312 10.37967768 -0.17379002 5.44831723 0 0 Z " fill="#283508" transform="translate(112,80)"/>
<path d="M0 0 C0.66 0 1.32 0 2 0 C2.33 0.99 2.66 1.98 3 3 C1.7934375 4.0828125 1.7934375 4.0828125 0.5625 5.1875 C-2.02292072 8.02515689 -2.68042813 9.27166147 -3 13 C-3.33 13 -3.66 13 -4 13 C-4.25 5.375 -4.25 5.375 -2 2 C-1.34 2 -0.68 2 0 2 C0 1.34 0 0.68 0 0 Z " fill="#EDF2D5" transform="translate(136,122)"/>
<path d="M0 0 C2.92586433 1.46293216 3.05946588 3.40270098 4.125 6.4375 C4.47820312 7.42621094 4.83140625 8.41492188 5.1953125 9.43359375 C6 12 6 12 6 14 C4.68 13.67 3.36 13.34 2 13 C1.34 8.71 0.68 4.42 0 0 Z " fill="#F2FACF" transform="translate(79,111)"/>
<path d="M0 0 C4.71403788 0.47939368 8.66579301 0.96834048 13 3 C13 3.33 13 3.66 13 4 C7.66404866 4.27131956 4.38616179 4.4266889 0 1 C0 0.67 0 0.34 0 0 Z " fill="#F8FCE0" transform="translate(112,77)"/>
<path d="M0 0 C4.95 0.99 9.9 1.98 15 3 C14.34 4.32 13.68 5.64 13 7 C12.01 6.34 11.02 5.68 10 5 C8.28616279 4.41162754 6.55480159 3.87280046 4.8125 3.375 C3.91144531 3.11460937 3.01039062 2.85421875 2.08203125 2.5859375 C1.39496094 2.39257812 0.70789063 2.19921875 0 2 C0 1.34 0 0.68 0 0 Z " fill="#EEF7CE" transform="translate(96,135)"/>
<path d="M0 0 C7.29247911 0.99442897 7.29247911 0.99442897 10 3 C10.38859329 4.65465529 10.72672009 6.32244017 11 8 C9.16399255 6.85845641 7.33125195 5.71165684 5.5 4.5625 C4.4790625 3.92441406 3.458125 3.28632812 2.40625 2.62890625 C1.6121875 2.09136719 0.818125 1.55382812 0 1 C0 0.67 0 0.34 0 0 Z " fill="#F1FBC9" transform="translate(121,81)"/>
<path d="M0 0 C0 0.33 0 0.66 0 1 C-1.36125 1.4021875 -1.36125 1.4021875 -2.75 1.8125 C-5.71471963 2.89576294 -7.6169754 3.98359457 -10 6 C-10 4.68 -10 3.36 -10 2 C-9.34 2 -8.68 2 -8 2 C-8 1.34 -8 0.68 -8 0 C-5.13822943 -1.43088528 -3.06624227 -0.59991697 0 0 Z " fill="#AEC75D" transform="translate(127,126)"/>
<path d="M0 0 C-2.40545638 1.20272819 -3.94996953 1.10071472 -6.625 1.0625 C-7.85089844 1.04896484 -7.85089844 1.04896484 -9.1015625 1.03515625 C-10.04128906 1.01775391 -10.04128906 1.01775391 -11 1 C-11 0.34 -11 -0.32 -11 -1 C-3.57142857 -2.42857143 -3.57142857 -2.42857143 0 0 Z " fill="#161F02" transform="translate(98,110)"/>
<path d="M0 0 C0.99 0.33 1.98 0.66 3 1 C1.8803014 2.00593243 0.7540588 3.0045849 -0.375 4 C-1.00148438 4.556875 -1.62796875 5.11375 -2.2734375 5.6875 C-4 7 -4 7 -6 7 C-4.75686537 3.27059611 -3.23014784 2.15343189 0 0 Z " fill="#1C2701" transform="translate(104,102)"/>
<path d="M0 0 C2.25 -0.3125 2.25 -0.3125 5 0 C7.3125 2.5 7.3125 2.5 9 5 C7.02 5 5.04 5 3 5 C2.67 4.01 2.34 3.02 2 2 C1.34 1.34 0.68 0.68 0 0 Z " fill="#C5DE6E" transform="translate(123,85)"/>
<path d="M0 0 C2.64752004 2.57784846 4.94432065 4.91648098 7 8 C5.02 7.34 3.04 6.68 1 6 C0.67 4.02 0.34 2.04 0 0 Z " fill="#F6FDD2" transform="translate(85,125)"/>
<path d="M0 0 C0 3.58912412 -0.66436554 4.10857029 -3 6.6875 C-3.556875 7.31011719 -4.11375 7.93273437 -4.6875 8.57421875 C-5.120625 9.04472656 -5.55375 9.51523438 -6 10 C-6.66 9.67 -7.32 9.34 -8 9 C-6.85459775 7.68712379 -5.70866567 6.37470979 -4.5625 5.0625 C-3.92441406 4.33160156 -3.28632812 3.60070312 -2.62890625 2.84765625 C-1.77458541 1.87860647 -0.91348825 0.91348825 0 0 Z " fill="#2D3A0A" transform="translate(121,128)"/>
<path d="M0 0 C0.66 0.33 1.32 0.66 2 1 C-0.31 3.64 -2.62 6.28 -5 9 C-5 4.61031544 -2.87194899 3.23094261 0 0 Z " fill="#3D3D3D" transform="translate(70,65)"/>
<path d="M0 0 C0 3 0 3 -1.3125 4.625 C-3 6 -3 6 -6 7 C-4.60667426 3.63279613 -3.0210714 2.0140476 0 0 Z " fill="#CFE387" transform="translate(92,85)"/>
<path d="M0 0 C1.65 0 3.3 0 5 0 C3.6875 2 3.6875 2 2 4 C1.01 4 0.02 4 -1 4 C-0.67 2.68 -0.34 1.36 0 0 Z " fill="#B9D45F" transform="translate(105,104)"/>
<path d="M0 0 C0.33 0.99 0.66 1.98 1 3 C-0.40445835 5.2636564 -2.1967913 7.0208685 -4 9 C-4 5.00095031 -2.27413033 3.19799578 0 0 Z " fill="#414141" transform="translate(33,39)"/>
</svg>
