<?xml version="1.0" encoding="UTF-8"?>
<svg version="1.1" xmlns="http://www.w3.org/2000/svg" width="214" height="207">
<path d="M0 0 C70.62 0 141.24 0 214 0 C214 68.31 214 136.62 214 207 C143.38 207 72.76 207 0 207 C0 138.69 0 70.38 0 0 Z " fill="#FDFDFD" transform="translate(0,0)"/>
<path d="M0 0 C1.52254646 -0.01925285 1.52254646 -0.01925285 3.07585144 -0.03889465 C4.72113579 -0.04997505 4.72113579 -0.04997505 6.3996582 -0.0612793 C8.09612236 -0.07338692 8.09612236 -0.07338692 9.82685852 -0.08573914 C12.22342395 -0.09957816 14.62000908 -0.11030112 17.01660156 -0.11816406 C20.66875978 -0.13534898 24.32000626 -0.17923513 27.97192383 -0.22338867 C30.30199531 -0.23351824 32.63207447 -0.24203352 34.9621582 -0.2487793 C36.04889328 -0.26628738 37.13562836 -0.28379547 38.2552948 -0.30183411 C44.63202801 -0.28373582 49.77351607 0.30382452 55.01293945 4.17700195 C58.82298861 8.31155674 60.9958024 12.97491167 63.01293945 18.17700195 C64.15569336 18.19827148 64.15569336 18.19827148 65.3215332 18.2199707 C74.02058999 18.62179979 80.34358039 20.31947063 86.45043945 26.73950195 C86.96606445 27.54387695 87.48168945 28.34825195 88.01293945 29.17700195 C88.36735107 29.72275879 88.7217627 30.26851562 89.08691406 30.83081055 C90.42413931 34.2188239 90.35092735 37.56141794 90.3918457 41.15356445 C90.40884018 41.92002289 90.42583466 42.68648132 90.44334412 43.47616577 C90.49635371 45.91802808 90.53672514 48.35987446 90.57543945 50.80200195 C90.61938069 53.25118577 90.66606687 55.70023898 90.71824646 58.14926147 C90.75018123 59.67164272 90.77707838 61.19413954 90.79847717 62.71670532 C90.80674996 66.57444177 90.80674996 66.57444177 92.01293945 70.17700195 C95.72893136 70.37786638 96.78502391 70.32894565 100.01293945 68.17700195 C104.08784697 67.83742633 105.54295216 67.86367709 109.01293945 70.17700195 C109.51293945 73.48950195 109.51293945 73.48950195 109.01293945 77.17700195 C106.56199717 80.1578777 104.21765948 82.04052194 101.01293945 84.17700195 C97.9465332 84.4074707 97.9465332 84.4074707 94.45043945 84.36450195 C93.29415039 84.35805664 92.13786133 84.35161133 90.9465332 84.3449707 C88.01293945 84.17700195 88.01293945 84.17700195 86.01293945 83.17700195 C86.34293945 86.47700195 86.67293945 89.77700195 87.01293945 93.17700195 C87.67293945 93.17700195 88.33293945 93.17700195 89.01293945 93.17700195 C90.85559367 96.86231038 90.32701116 101.18223171 90.38793945 105.23950195 C90.44401367 106.61525391 90.44401367 106.61525391 90.5012207 108.01879883 C90.58808293 114.82783201 89.15731365 119.70885214 85.01293945 125.17700195 C81.02966198 128.7869256 76.89683329 130.29537013 71.56794739 130.32417297 C70.65824188 130.33132828 69.74853638 130.33848358 68.81126404 130.34585571 C67.81538773 130.34854462 66.81951141 130.35123352 65.79345703 130.35400391 C64.21736664 130.3638607 64.21736664 130.3638607 62.60943604 130.37391663 C59.12544689 130.39365801 55.64150088 130.4053147 52.1574707 130.4152832 C50.3727514 130.42139649 50.3727514 130.42139649 48.55197716 130.42763329 C42.2534032 130.44849849 35.95485105 130.46279778 29.65625 130.47216797 C23.154032 130.48322789 16.65215664 130.51762217 10.1500597 130.55733967 C5.14769357 130.58350083 0.1454091 130.59185944 -4.85701942 130.59544945 C-7.25355656 130.60031735 -9.65009 130.61193706 -12.04656029 130.63048744 C-15.40485037 130.65486521 -18.76225377 130.65391575 -22.12060547 130.64697266 C-23.5992382 130.66618774 -23.5992382 130.66618774 -25.10774231 130.68579102 C-32.03659039 130.63371003 -37.76711615 129.35592795 -42.8269043 124.3605957 C-43.18913086 123.78438477 -43.55135742 123.20817383 -43.92456055 122.61450195 C-44.30483398 122.03571289 -44.68510742 121.45692383 -45.0769043 120.8605957 C-47.30427411 116.74043953 -47.14808842 112.76685567 -47.1640625 108.22070312 C-47.1739193 107.00555275 -47.1739193 107.00555275 -47.18397522 105.76585388 C-47.20369227 103.08389187 -47.21536689 100.4019858 -47.2253418 97.7199707 C-47.22941732 96.80347559 -47.23349285 95.88698048 -47.23769188 94.94271278 C-47.25854522 90.09234467 -47.27285047 85.2420048 -47.28222656 80.39160156 C-47.29329308 75.38455855 -47.32769786 70.37795969 -47.36739826 65.37107372 C-47.39355393 61.51828693 -47.40191743 57.66560619 -47.40550804 53.81273842 C-47.41037624 51.96717642 -47.4219969 50.12161923 -47.44054604 48.27614403 C-47.46491678 45.69090005 -47.46397654 43.10680827 -47.45703125 40.52148438 C-47.47624634 39.38271851 -47.47624634 39.38271851 -47.49584961 38.22094727 C-47.43774553 32.27398007 -45.48734717 28.81157507 -41.4597168 24.56762695 C-36.25366835 20.3566404 -32.68540953 19.04307399 -26.04956055 19.23950195 C-22.8702666 19.15748098 -22.8702666 19.15748098 -19.98706055 18.17700195 C-17.84153202 15.58650755 -16.64201882 13.0574604 -15.2878418 9.9855957 C-13.47267118 6.06635344 -11.26710474 3.94681705 -7.98706055 1.17700195 C-5.04230529 0.19541687 -3.07247595 0.03387085 0 0 Z " fill="#171716" transform="translate(73.987060546875,39.822998046875)"/>
<path d="M0 0 C0.87100342 -0.00637985 1.74200684 -0.0127597 2.6394043 -0.01933289 C4.0457312 -0.02100212 4.0457312 -0.02100212 5.48046875 -0.02270508 C6.44573486 -0.02603348 7.41100098 -0.02936188 8.40551758 -0.03279114 C10.44644697 -0.03785387 12.48738464 -0.04019966 14.52832031 -0.04003906 C17.65573689 -0.04222777 20.782802 -0.06039652 23.91015625 -0.0793457 C25.89192587 -0.08227927 27.87369718 -0.08426431 29.85546875 -0.08520508 C31.26179565 -0.09598335 31.26179565 -0.09598335 32.6965332 -0.10697937 C34.00303833 -0.10236443 34.00303833 -0.10236443 35.3359375 -0.09765625 C36.10188232 -0.09908127 36.86782715 -0.10050629 37.65698242 -0.10197449 C39.66796875 0.14526367 39.66796875 0.14526367 42.66796875 2.14526367 C43.66015625 4.13354492 43.66015625 4.13354492 44.54296875 6.45776367 C46.79770407 11.83111758 49.82402829 14.91597003 54.66796875 18.14526367 C58.22090258 18.48631078 61.75346343 18.58758789 65.3203125 18.70385742 C68.9655721 19.18450425 70.17791966 19.50015167 72.66796875 22.14526367 C73.02508742 24.72323804 73.13610468 26.8684048 73.05859375 29.43823242 C73.05293396 30.14426102 73.04727417 30.85028961 73.04144287 31.57771301 C73.01907286 33.83008993 72.96888074 36.08086871 72.91796875 38.33276367 C72.89790431 39.86073547 72.87965343 41.38873223 72.86328125 42.91674805 C72.81920677 46.66020123 72.75017949 50.40246163 72.66796875 54.14526367 C70.65331575 53.13911902 68.6400181 52.13104693 66.6328125 51.11010742 C65.96378906 50.77108398 65.29476562 50.43206055 64.60546875 50.08276367 C63.93386719 49.74116211 63.26226562 49.39956055 62.5703125 49.04760742 C58.71584134 47.2193059 55.58045369 47.11130229 51.3581543 47.10864258 C40.92697728 46.99801679 40.92697728 46.99801679 37.1015625 44.40698242 C35.45630054 42.3936529 34.0675742 40.33269735 32.66796875 38.14526367 C25.89121143 33.25969444 17.72189602 33.22803663 9.62988281 33.82397461 C3.52046841 34.82447104 -1.32369128 39.38909502 -4.83203125 44.27026367 C-8.34664997 51.00661622 -9.37181654 56.55935185 -8.33203125 64.14526367 C-5.44527551 72.32279583 -1.96006551 77.83124654 5.91796875 81.77026367 C9.00280058 82.90136868 11.23679349 83.35712403 14.41796875 83.77026367 C16.73046875 84.23510742 16.73046875 84.23510742 18.66796875 85.14526367 C19.89550493 87.316017 20.41694226 89.32844125 20.9921875 91.75073242 C22.07283014 95.57983033 24.17372219 98.07542176 26.66796875 101.14526367 C27.32796875 101.47526367 27.98796875 101.80526367 28.66796875 102.14526367 C28.66796875 102.80526367 28.66796875 103.46526367 28.66796875 104.14526367 C20.22759457 104.21469139 11.78733915 104.26803781 3.34675026 104.30070019 C-0.57232097 104.31637438 -4.49119724 104.33764415 -8.41015625 104.37158203 C-12.1902725 104.40411369 -15.97020092 104.42210347 -19.75044632 104.4298954 C-21.19460636 104.43545013 -22.63875581 104.44629688 -24.08283615 104.46245384 C-26.10118382 104.48414332 -28.11971942 104.48548834 -30.13818359 104.48583984 C-31.86359879 104.4958326 -31.86359879 104.4958326 -33.62387085 104.50602722 C-34.51756378 104.38697525 -35.41125671 104.26792328 -36.33203125 104.14526367 C-38.75998666 100.50333056 -38.62110947 97.80984422 -38.60668945 93.6003418 C-38.61180038 92.83419052 -38.61691132 92.06803925 -38.62217712 91.27867126 C-38.63608465 88.74453943 -38.6351157 86.21067915 -38.6328125 83.67651367 C-38.63669841 81.9167877 -38.64103287 80.15706267 -38.64579773 78.39733887 C-38.65326215 74.70862792 -38.65296678 71.02001269 -38.64770508 67.33129883 C-38.64190602 62.59977542 -38.65885078 57.86864289 -38.68204975 53.13718414 C-38.69676611 49.50325218 -38.69766174 45.86941485 -38.69454002 42.23545837 C-38.69505416 40.49070968 -38.70030914 38.74595582 -38.71035194 37.00123596 C-38.72266048 34.56395893 -38.71595912 32.12744987 -38.7043457 29.69018555 C-38.71198944 28.96697617 -38.71963318 28.24376678 -38.72750854 27.49864197 C-38.69702635 24.61088594 -38.65681223 22.62142862 -37.00309753 20.19689941 C-34.3152485 18.50538177 -31.71283218 18.76487056 -28.58203125 18.70776367 C-20.60563168 18.44987615 -20.60563168 18.44987615 -14.33203125 14.14526367 C-12.33240424 10.79578362 -10.58740974 7.46906102 -8.91015625 3.94604492 C-6.64682592 -0.07080619 -4.27468396 0.02127338 0 0 Z " fill="#FCFCFC" transform="translate(78.33203125,52.854736328125)"/>
<path d="M0 0 C0.67264893 -0.00628418 1.34529785 -0.01256836 2.03833008 -0.01904297 C8.89783072 0.15372352 14.25054598 2.43823907 19.3125 7 C19.98023438 7.5878125 20.64796875 8.175625 21.3359375 8.78125 C22.9375 10.5 22.9375 10.5 23.9375 13.5 C25.13246094 13.45359375 26.32742187 13.4071875 27.55859375 13.359375 C43.74279874 12.91718361 43.74279874 12.91718361 50.9375 17.5 C52.030625 18.03625 53.12375 18.5725 54.25 19.125 C57.63562883 22.11695106 58.41633627 24.92038355 59.859375 29.12109375 C61.0196213 31.68120243 61.87742046 32.49413039 64.1875 34 C66.9375 36.5 66.9375 36.5 67.3203125 39.01953125 C67.31326269 41.53983896 67.20023611 43.99427596 66.9375 46.5 C66.009375 46.45875 65.08125 46.4175 64.125 46.375 C60.77940281 46.22863661 60.77940281 46.22863661 57.9375 48.5 C57.46295709 50.57342345 57.46295709 50.57342345 57.49609375 52.96484375 C57.46966797 53.84720703 57.44324219 54.72957031 57.41601562 55.63867188 C57.39571289 57.0240918 57.39571289 57.0240918 57.375 58.4375 C57.34053015 60.25929522 57.29790556 62.08095924 57.24609375 63.90234375 C57.23376709 64.71179443 57.22144043 65.52124512 57.20874023 66.35522461 C56.9375 68.5 56.9375 68.5 54.9375 71.5 C53.10250854 71.86076355 53.10250854 71.86076355 50.85498047 71.84057617 C50.01425995 71.84034958 49.17353943 71.84012299 48.30734253 71.83988953 C47.39896637 71.82440567 46.49059021 71.80892181 45.5546875 71.79296875 C44.62528351 71.78872391 43.69587952 71.78447906 42.73831177 71.78010559 C39.76274944 71.76328012 36.78785844 71.72562103 33.8125 71.6875 C31.79818685 71.67245816 29.78386311 71.65876888 27.76953125 71.64648438 C22.82526121 71.61336394 17.88149451 71.56155529 12.9375 71.5 C12.9375 70.84 12.9375 70.18 12.9375 69.5 C11.9475 69.17 10.9575 68.84 9.9375 68.5 C5.70277863 63.59109414 3.21332415 58.98186757 2.9375 52.5 C2.36902344 52.46261719 1.80054687 52.42523438 1.21484375 52.38671875 C-6.58163059 51.72291209 -13.81834053 49.69388914 -19.0625 43.5 C-24.15932158 35.82560961 -26.58785615 28.70428582 -25.0625 19.5 C-22.70116821 12.07867152 -17.40892553 5.38123457 -10.703125 1.4140625 C-7.14941261 0.18393129 -3.72269277 0.02645352 0 0 Z " fill="#BEE14F" transform="translate(94.0625,85.5)"/>
<path d="M0 0 C0.67264893 -0.00628418 1.34529785 -0.01256836 2.03833008 -0.01904297 C9.89629076 0.17887119 15.5478403 3.33261042 21.13671875 8.57421875 C27.11429666 14.96672615 27.64498024 21.22798068 27.37890625 29.87109375 C26.38640185 38.03070961 22.14170395 42.84008569 16.09765625 48.08984375 C9.33410883 52.50510708 1.71233195 52.08061756 -6.0625 51.5 C-12.39366589 50.09551259 -17.24544288 46.23598075 -20.76953125 40.9296875 C-24.7472037 33.79409711 -26.41043695 27.63370501 -25.0625 19.5 C-22.70116821 12.07867152 -17.40892553 5.38123457 -10.703125 1.4140625 C-7.14941261 0.18393129 -3.72269277 0.02645352 0 0 Z " fill="#161715" transform="translate(94.0625,85.5)"/>
<path d="M0 0 C3.17282395 1.66019858 5.37590133 3.75180266 7 7 C7.55601425 12.06793316 7.55831633 15.92187191 5.1875 20.5 C2.79762666 23.23128382 1.16081858 24.82687949 -2.48828125 25.37109375 C-11.05391695 25.57249874 -11.05391695 25.57249874 -14.5625 22.75 C-17.7977944 19.09992426 -18.83568189 17.478863 -19.375 12.625 C-18.85795379 7.6268866 -16.88268084 4.71152803 -13.1953125 1.359375 C-9.12908983 -1.15849953 -4.60370446 -0.73180273 0 0 Z " fill="#F8F8F8" transform="translate(101,99)"/>
<path d="M0 0 C0.66 0.33 1.32 0.66 2 1 C1.89013032 4.27152618 1.7595003 7.54190114 1.625 10.8125 C1.57859375 12.2056543 1.57859375 12.2056543 1.53125 13.62695312 C1.49257812 14.51962891 1.45390625 15.41230469 1.4140625 16.33203125 C1.3826416 17.15421143 1.3512207 17.9763916 1.31884766 18.82348633 C1 21 1 21 -1 24 C-2.83499146 24.36076355 -2.83499146 24.36076355 -5.08251953 24.34057617 C-5.92324005 24.34034958 -6.76396057 24.34012299 -7.63015747 24.33988953 C-8.53853363 24.32440567 -9.44690979 24.30892181 -10.3828125 24.29296875 C-11.31221649 24.28872391 -12.24162048 24.28447906 -13.19918823 24.28010559 C-16.17475056 24.26328012 -19.14964156 24.22562103 -22.125 24.1875 C-24.13931315 24.17245816 -26.15363689 24.15876888 -28.16796875 24.14648438 C-33.11223879 24.11336394 -38.05600549 24.06155529 -43 24 C-43 23.34 -43 22.68 -43 22 C-43.99 21.67 -44.98 21.34 -46 21 C-50.23472137 16.09109414 -52.72417585 11.48186757 -53 5 C-52.34 5 -51.68 5 -51 5 C-50.84144531 5.59167969 -50.68289062 6.18335938 -50.51953125 6.79296875 C-48.53452454 13.51567102 -45.91703059 17.05531294 -40 21 C-37.17016801 21.17193073 -34.44118127 21.23208437 -31.61328125 21.1953125 C-30.79627243 21.1924826 -29.97926361 21.18965271 -29.13749695 21.18673706 C-26.52901541 21.17554541 -23.9208777 21.1504429 -21.3125 21.125 C-19.54362475 21.11496888 -17.77474412 21.10584326 -16.00585938 21.09765625 C-11.67044051 21.07560942 -7.33527855 21.0410867 -3 21 C-2.94465088 20.39937744 -2.88930176 19.79875488 -2.83227539 19.17993164 C-2.58029218 16.47366869 -2.3214883 13.76810116 -2.0625 11.0625 C-1.97548828 10.11697266 -1.88847656 9.17144531 -1.79882812 8.19726562 C-1.71181641 7.29814453 -1.62480469 6.39902344 -1.53515625 5.47265625 C-1.456604 4.64000244 -1.37805176 3.80734863 -1.29711914 2.94946289 C-1 1 -1 1 0 0 Z " fill="#B8D263" transform="translate(150,133)"/>
<path d="M0 0 C2.07776754 1.69197516 2.92301562 2.59704571 3.43359375 5.26953125 C3.44243732 11.02669378 2.94772635 14.48831274 -1 19 C-4.22791555 21.1519437 -5.28400809 21.20086443 -9 21 C-7.82404078 15.47299167 -5.69224571 11.75184383 -2.33984375 7.2109375 C-0.87178686 4.78842962 -0.39602519 2.78684394 0 0 Z " fill="#C0D86D" transform="translate(105,103)"/>
<path d="M0 0 C1.66666667 1.66666667 3.33333333 3.33333333 5 5 C5.598125 5.556875 6.19625 6.11375 6.8125 6.6875 C8 8 8 8 8 10 C-13.45 10 -34.9 10 -57 10 C-57 9.67 -57 9.34 -57 9 C-36.87 8.67 -16.74 8.34 4 8 C2.68 6.68 1.36 5.36 0 4 C0 2.68 0 1.36 0 0 Z " fill="#E8E9E6" transform="translate(99,147)"/>
<path d="M0 0 C2.83392926 -0.08174796 5.66544819 -0.14084985 8.5 -0.1875 C9.29148437 -0.21263672 10.08296875 -0.23777344 10.8984375 -0.26367188 C16.62130318 -0.33403498 20.75203857 0.70702602 26 3 C26 3.33 26 3.66 26 4 C25.16082031 3.89171875 25.16082031 3.89171875 24.3046875 3.78125 C17.78956792 3.02708825 11.4599318 3.01561122 4.90625 3.2578125 C3.9471875 3.17273438 2.988125 3.08765625 2 3 C1.34 2.01 0.68 1.02 0 0 Z " fill="#C4DE69" transform="translate(118,99)"/>
<path d="M0 0 C2.07776754 1.69197516 2.92301562 2.59704571 3.43359375 5.26953125 C3.44269082 11.1917264 2.84319177 14.43620977 -1 19 C-2.13201694 15.60394919 -1.71634649 14.42254433 -1 11 C-1 10.01 -1 9.02 -1 8 C-1 5.17079927 -0.64579879 2.74464486 0 0 Z " fill="#B6CC6B" transform="translate(105,103)"/>
<path d="M0 0 C0.33 0 0.66 0 1 0 C2.74540097 10.83531098 2.74540097 10.83531098 0 15.125 C-3.40986191 17.2561637 -6.08842855 18.15632773 -10 19 C-10.66 18.34 -11.32 17.68 -12 17 C-11.278125 16.773125 -10.55625 16.54625 -9.8125 16.3125 C-6.22670027 14.63912679 -4.43056861 13.15317009 -2 10 C-1.01992696 6.70109437 -0.44356121 3.40946303 0 0 Z " fill="#141B06" transform="translate(108,108)"/>
<path d="M0 0 C0.66 0.33 1.32 0.66 2 1 C2.0816082 3.37570543 2.14077222 5.74855841 2.1875 8.125 C2.22520508 9.12273437 2.22520508 9.12273437 2.26367188 10.140625 C2.33320714 14.86902292 1.40278375 17.95121479 -1 22 C-1.89506817 19.03013448 -2.03315169 16.74360212 -1.66015625 13.671875 C-1.56669922 12.87265625 -1.47324219 12.0734375 -1.37695312 11.25 C-1.22129883 10.0125 -1.22129883 10.0125 -1.0625 8.75 C-0.96259766 7.90953125 -0.86269531 7.0690625 -0.75976562 6.203125 C-0.51295742 4.13463723 -0.25733716 2.06720428 0 0 Z " fill="#182302" transform="translate(119,103)"/>
<path d="M0 0 C0.66 0.33 1.32 0.66 2 1 C1.61328125 1.47308594 1.2265625 1.94617188 0.828125 2.43359375 C-3.03503571 7.33904287 -5.71606001 12.19610545 -8 18 C-9.52256162 13.63993717 -8.15083433 11.2064007 -6.2578125 7.1953125 C-4.54284094 4.20210127 -2.60519678 2.24336389 0 0 Z " fill="#F8FEDE" transform="translate(104,106)"/>
<path d="M0 0 C0.99 0.33 1.98 0.66 3 1 C-2.35022874 5.72079006 -6.87265814 7.33939723 -14 7 C-13.67 6.34 -13.34 5.68 -13 5 C-8.70205996 3.78225032 -4.39080506 2.82327595 0 2 C0 1.34 0 0.68 0 0 Z " fill="#172101" transform="translate(110,130)"/>
<path d="M0 0 C0.66 0 1.32 0 2 0 C2.25523438 0.87011719 2.25523438 0.87011719 2.515625 1.7578125 C4.08097511 6.80356871 5.84684491 10.75955006 9 15 C8.67 15.66 8.34 16.32 8 17 C0.14806378 6.81093394 0.14806378 6.81093394 0 0 Z " fill="#C5DE74" transform="translate(97,138)"/>
<path d="M0 0 C0.66 0.33 1.32 0.66 2 1 C2 1.66 2 2.32 2 3 C-3.68697571 3.91397824 -8.31302429 3.91397824 -14 3 C-14 2.67 -14 2.34 -14 2 C-13.24074219 1.93941406 -12.48148437 1.87882813 -11.69921875 1.81640625 C-10.70535156 1.73261719 -9.71148437 1.64882812 -8.6875 1.5625 C-7.70136719 1.48128906 -6.71523437 1.40007812 -5.69921875 1.31640625 C-2.90624401 1.08187441 -2.90624401 1.08187441 0 0 Z " fill="#99AD5B" transform="translate(105,135)"/>
<path d="M0 0 C0.66 0 1.32 0 2 0 C2.99 2.97 3.98 5.94 5 9 C4.01 9 3.02 9 2 9 C0.14223235 5.86501708 -0.20140476 3.62528568 0 0 Z " fill="#1A2304" transform="translate(152,108)"/>
<path d="M0 0 C4.84455959 2.37823834 4.84455959 2.37823834 7 4 C7.9375 6.75 7.9375 6.75 8 9 C7.01 8.67 6.02 8.34 5 8 C4.67 7.01 4.34 6.02 4 5 C3.01 4.67 2.02 4.34 1 4 C0.3125 1.9375 0.3125 1.9375 0 0 Z " fill="#BED56C" transform="translate(144,103)"/>
<path d="M0 0 C0.66 0.66 1.32 1.32 2 2 C1.9765625 4.8203125 1.9765625 4.8203125 1.625 8.125 C1.51414062 9.22070312 1.40328125 10.31640625 1.2890625 11.4453125 C1.19367188 12.28835937 1.09828125 13.13140625 1 14 C0.67 14 0.34 14 0 14 C-0.19393875 11.85473901 -0.37998676 9.70876323 -0.5625 7.5625 C-0.71912109 5.77005859 -0.71912109 5.77005859 -0.87890625 3.94140625 C-0.91886719 2.97074219 -0.95882812 2.00007813 -1 1 C-0.67 0.67 -0.34 0.34 0 0 Z " fill="#A3BC55" transform="translate(121,101)"/>
<path d="M0 0 C5.94 0 11.88 0 18 0 C18 0.33 18 0.66 18 1 C15.72926348 1.16798051 13.45840707 1.33434113 11.1875 1.5 C9.29064453 1.63921875 9.29064453 1.63921875 7.35546875 1.78125 C5.24021483 1.91914781 3.11974408 2 1 2 C0.67 1.34 0.34 0.68 0 0 Z " fill="#C2D67C" transform="translate(118,99)"/>
<path d="M0 0 C0.66 0 1.32 0 2 0 C2.66 2.97 3.32 5.94 4 9 C2 7.875 2 7.875 0 6 C-0.25 2.8125 -0.25 2.8125 0 0 Z " fill="#F0FAD1" transform="translate(95,138)"/>
<path d="M0 0 C2.96404505 2.80804268 5.44499019 5.18315774 7 9 C3.6014593 7.8671531 2.26586505 6.73466472 0 4 C0 2.68 0 1.36 0 0 Z " fill="#F0FAC9" transform="translate(99,147)"/>
<path d="M0 0 C0.33 0 0.66 0 1 0 C1 3.63 1 7.26 1 11 C0.01 11.33 -0.98 11.66 -2 12 C-1.34 8.04 -0.68 4.08 0 0 Z " fill="#303B0D" transform="translate(108,108)"/>
<path d="M0 0 C0.66 0.33 1.32 0.66 2 1 C2 2.32 2 3.64 2 5 C0.68 5 -0.64 5 -2 5 C-2 3.68 -2 2.36 -2 1 C-1.34 0.67 -0.68 0.34 0 0 Z " fill="#C0E04F" transform="translate(103,113)"/>
<path d="M0 0 C0.33 1.32 0.66 2.64 1 4 C0.01 4.33 -0.98 4.66 -2 5 C-2.73323796 7.01508358 -2.73323796 7.01508358 -3 9 C-3.33 8.01 -3.66 7.02 -4 6 C-2.0625 2.8125 -2.0625 2.8125 0 0 Z " fill="#CBE17E" transform="translate(103,109)"/>
</svg>
