<?xml version="1.0" encoding="UTF-8"?>
<svg version="1.1" xmlns="http://www.w3.org/2000/svg" width="200" height="200">
<path d="M0 0 C66 0 132 0 200 0 C200 66 200 132 200 200 C134 200 68 200 0 200 C0 134 0 68 0 0 Z " fill="#FDFDFD" transform="translate(0,0)"/>
<path d="M0 0 C1.00973877 -0.00563965 2.01947754 -0.0112793 3.05981445 -0.01708984 C12.55720526 0.07462733 21.07391749 1.53106639 29.75 5.4375 C30.43674805 5.74534424 31.12349609 6.05318848 31.83105469 6.37036133 C51.16026993 15.34980842 65.43822792 31.72969988 72.8125 51.5625 C75.56398324 60.19366733 75.44544961 69.28049773 75.53710938 78.26074219 C75.54935547 79.38770508 75.56160156 80.51466797 75.57421875 81.67578125 C75.5736145 83.19619019 75.5736145 83.19619019 75.57299805 84.74731445 C75.63018032 87.55354865 75.63018032 87.55354865 77.8125 90.3125 C80.26991537 90.81264953 80.26991537 90.81264953 82.8125 90.3125 C83.3075 89.8175 83.8025 89.3225 84.3125 88.8125 C85.8125 87.3125 85.8125 87.3125 88.25 86.875 C90.8125 87.3125 90.8125 87.3125 93.1875 88.875 C94.8125 91.3125 94.8125 91.3125 94.875 94.8125 C93.42803082 99.57898672 91.11665556 100.9744474 86.94921875 103.39453125 C83.0303128 105.07815629 78.98789828 104.85998508 74.8125 104.3125 C71.25919716 102.43894032 68.49505864 100.29312071 65.8125 97.3125 C64.64274684 100.82175949 64.9547889 103.25424498 65.1875 106.9375 C65.23521056 114.67456236 63.09482204 117.94968543 57.8125 123.3125 C57.18730469 124.07175781 56.56210938 124.83101563 55.91796875 125.61328125 C48.26556719 134.88655809 38.67265083 140.43213592 27.8125 145.3125 C26.78898437 145.80234375 25.76546875 146.2921875 24.7109375 146.796875 C7.97561396 153.90639192 -12.65275475 151.45659685 -29.3125 145.1875 C-48.02118085 136.7635644 -62.70833742 121.40067484 -70.41796875 102.390625 C-70.67191406 101.70484375 -70.92585938 101.0190625 -71.1875 100.3125 C-71.47238281 99.56484375 -71.75726563 98.8171875 -72.05078125 98.046875 C-78.62119855 79.73689693 -75.69202629 58.80304928 -68.1875 41.3125 C-58.5824622 22.60399295 -41.88625809 9.31859283 -22.3203125 2.28125 C-14.92579211 0.16292586 -7.65159147 0.04078363 0 0 Z " fill="#181817" transform="translate(96.1875,24.6875)"/>
<path d="M0 0 C19.19420575 -1.07552083 34.33626403 3.36176301 48.95947266 16.33203125 C56.77539743 23.55166923 61.98006076 32.23601775 65.77197266 42.14453125 C66.18447266 43.21703125 66.59697266 44.28953125 67.02197266 45.39453125 C68.1368068 50.96870197 67.92530557 56.47973193 67.77197266 62.14453125 C67.07072266 61.44328125 66.36947266 60.74203125 65.64697266 60.01953125 C64.95474609 59.33697266 64.95474609 59.33697266 64.24853516 58.640625 C63.27916388 57.65843135 62.3349296 56.65064733 61.42041016 55.6171875 C55.45716779 49.07094657 47.85921542 46.4076645 39.14697266 45.95703125 C36.64267499 45.93384331 34.82501854 46.1262856 32.44384766 46.9453125 C28.56897592 48.19929706 25.56150384 48.90329582 21.68066406 47.2578125 C18.52283781 45.5743649 15.47791575 43.77793279 12.49316406 41.80322266 C6.9339455 38.25339002 2.3677774 37.09625901 -4.22802734 38.14453125 C-9.36111525 40.75773964 -12.40781815 43.68390366 -14.22802734 49.14453125 C-14.48808336 53.24435367 -14.4594533 57.34984526 -14.47802734 61.45703125 C-14.49865234 62.58560547 -14.51927734 63.71417969 -14.54052734 64.87695312 C-14.57296819 71.76657685 -14.38450578 76.73810542 -9.50146484 82.0078125 C-4.50163481 85.82455518 -0.51941342 87.11540446 5.77197266 87.14453125 C6.10197266 88.46453125 6.43197266 89.78453125 6.77197266 91.14453125 C7.43197266 90.81453125 8.09197266 90.48453125 8.77197266 90.14453125 C9.28759766 91.15515625 9.80322266 92.16578125 10.33447266 93.20703125 C13.00880053 97.91346489 16.86075655 102.6889232 21.77197266 105.14453125 C21.77197266 105.80453125 21.77197266 106.46453125 21.77197266 107.14453125 C28.42753342 108.90825485 34.91160864 110.48488086 41.77197266 111.14453125 C40.27369129 115.63937534 37.27142893 116.5318446 33.18603516 118.6484375 C19.79043543 124.51859161 3.86226012 126.84129374 -10.22802734 122.14453125 C-11.14841797 121.88800781 -12.06880859 121.63148438 -13.01708984 121.3671875 C-20.49829113 119.16070662 -26.14667661 115.98689712 -32.22802734 111.14453125 C-32.91509766 110.63277344 -33.60216797 110.12101562 -34.31005859 109.59375 C-47.13669804 99.39821608 -53.98616769 84.03249314 -56.22802734 68.14453125 C-57.60094838 52.12711911 -53.86630272 37.24991382 -44.08740234 24.3125 C-41.89012613 21.81175382 -39.61368772 19.46538591 -37.22802734 17.14453125 C-36.54095703 16.43683594 -35.85388672 15.72914062 -35.14599609 15 C-25.28281666 5.42960511 -13.55834595 0.87952452 0 0 Z " fill="#FCFCFB" transform="translate(90.22802734375,37.85546875)"/>
<path d="M0 0 C3.22725232 1.34993521 6.0264298 3.19903749 8.9375 5.125 C15.99862559 9.60132644 15.99862559 9.60132644 24.125 9.625 C25.75707079 9.10502623 27.38309439 8.56537071 29 8 C35.15569595 7.19659115 40.34911658 8.74599594 46 11 C46.99 11.37125 47.98 11.7425 49 12.125 C53.89312792 15.18320495 59.38122394 19.76244788 62 25 C62.15599154 27.22721253 62.27544759 29.45705199 62.375 31.6875 C62.66839611 37.45106811 62.66839611 37.45106811 64.6875 42.75 C66.59675994 47.47769129 65.33939562 51.21093795 64 56 C63.34 55.67 62.68 55.34 62 55 C59.14363328 54.41005816 59.14363328 54.41005816 56 55 C53.91322499 56.99957548 52.33484702 58.78156532 50.625 61.0625 C49.65961279 62.25533361 48.69086258 63.4454534 47.71875 64.6328125 C46.81239099 65.75512031 45.90613187 66.8775088 45 68 C42.57678115 70.97310313 40.54792724 73.43766713 37 75 C29.64181985 75.17607736 22.69121083 72.88640467 16 70 C16 69.34 16 68.68 16 68 C15.43539062 67.77570313 14.87078125 67.55140625 14.2890625 67.3203125 C11.33795128 65.61813572 9.57975375 63.46318918 7.375 60.875 C5.95831173 59.21356825 4.50857403 57.57846935 3 56 C2.34 56 1.68 56 1 56 C0.67 54.02 0.34 52.04 0 50 C-0.8353125 50.10441406 -0.8353125 50.10441406 -1.6875 50.2109375 C-7.62110987 50.63190306 -10.79472862 49.48239025 -15.33984375 45.66015625 C-17.37144244 43.62855756 -18.77380598 41.59664617 -20 39 C-20.33 38.34 -20.66 37.68 -21 37 C-21.27075166 32.92231589 -21.23165813 28.83565152 -21.25 24.75 C-21.270625 23.61691406 -21.29125 22.48382813 -21.3125 21.31640625 C-21.3439581 14.60796614 -21.26422507 9.49679072 -16.46484375 4.35546875 C-10.79289603 0.01809696 -7.11950349 -0.93492311 0 0 Z " fill="#BFE24D" transform="translate(96,75)"/>
<path d="M0 0 C3.67992005 1.32226703 6.94656115 3.14895073 10.3125 5.125 C11.17939453 5.599375 12.04628906 6.07375 12.93945312 6.5625 C18.64018455 9.79509866 23.00202747 13.00405494 26 19 C26.5238576 24.25575165 26.66505372 28.64526095 24.3125 33.4375 C17.23458238 41.28059791 5.28531227 49.39547294 -5.5 50 C-10.72160766 49.56605168 -13.76279634 47.61577316 -17.4765625 44.01953125 C-21.95276535 38.08569311 -21.332868 31.6627854 -21.3125 24.5625 C-21.32861328 23.44294922 -21.34472656 22.32339844 -21.36132812 21.16992188 C-21.36527054 14.52695001 -21.21338707 9.44233068 -16.46484375 4.35546875 C-10.76224212 -0.00534426 -7.14766316 -0.89890486 0 0 Z " fill="#060705" transform="translate(96,75)"/>
<path d="M0 0 C6.70943157 0.85652318 12.59210115 6.47731334 17.9375 10.375 C17.859375 12.60546875 17.859375 12.60546875 16.9375 15.375 C14.6710845 17.07481162 12.65676218 18.37039355 10.1875 19.6875 C9.56617187 20.04650391 8.94484375 20.40550781 8.3046875 20.77539062 C4.74756807 22.74531436 2.02104111 23.94215849 -2.0625 23.375 C-3.68450515 21.75299485 -3.1924075 19.95476969 -3.1953125 17.71875 C-3.19660156 16.77902344 -3.19789062 15.83929688 -3.19921875 14.87109375 C-3.19535156 13.88238281 -3.19148438 12.89367187 -3.1875 11.875 C-3.19136719 10.88628906 -3.19523437 9.89757812 -3.19921875 8.87890625 C-3.19792969 7.93917969 -3.19664063 6.99945313 -3.1953125 6.03125 C-3.19418457 5.16306641 -3.19305664 4.29488281 -3.19189453 3.40039062 C-3.01474368 0.62747841 -2.71854054 0.4942801 0 0 Z " fill="#F2F3EE" transform="translate(91.0625,87.625)"/>
<path d="M0 0 C0.99 0.37125 1.98 0.7425 3 1.125 C7.89312792 4.18320495 13.38122394 8.76244788 16 14 C16.15599154 16.22721253 16.27544759 18.45705199 16.375 20.6875 C16.66839611 26.45106811 16.66839611 26.45106811 18.6875 31.75 C20.59675994 36.47769129 19.33939562 40.21093795 18 45 C17.01 44.505 17.01 44.505 16 44 C13.16535447 43.37304777 13.16535447 43.37304777 10 44 C7.66996747 45.87601333 5.93635962 48.13243484 4.125 50.5 C3.37863281 51.43005859 3.37863281 51.43005859 2.6171875 52.37890625 C1.39519299 53.90639939 0.19535383 55.45157012 -1 57 C-1.33 55.68 -1.66 54.36 -2 53 C-0.02 52.505 -0.02 52.505 2 52 C2 50.68 2 49.36 2 48 C2.66 48 3.32 48 4 48 C4.28875 47.401875 4.5775 46.80375 4.875 46.1875 C6 44 6 44 8 41 C9.9453125 40.70703125 9.9453125 40.70703125 12.125 40.8125 C13.40375 40.874375 14.6825 40.93625 16 41 C16.33 38.03 16.66 35.06 17 32 C16.34 32 15.68 32 15 32 C15 26.39 15 20.78 15 15 C14.01 14.67 13.02 14.34 12 14 C10.96210419 12.35666496 9.96432076 10.68756133 9 9 C6.81589913 6.34109459 5.29346703 5.76847564 2 5 C1.67 4.34 1.34 3.68 1 3 C-5.86946838 -1.32522083 -16.13426308 -0.86060653 -23.87109375 0.5078125 C-24.57363281 0.67023438 -25.27617188 0.83265625 -26 1 C-24.22208888 -1.27177532 -23.14569764 -1.96272851 -20.3125 -2.6875 C-12.59305544 -3.41574949 -7.17960815 -2.86377628 0 0 Z " fill="#B3CD61" transform="translate(142,86)"/>
<path d="M0 0 C0.66 0 1.32 0 2 0 C4.13090422 4.26180844 3.57843996 9.38382226 3 14 C0.46834539 20.47407858 -3.67522983 24.00405624 -9.8515625 26.9296875 C-12.07918658 27.95291298 -12.07918658 27.95291298 -14.1015625 29.62109375 C-16.52065441 31.3781708 -18.07849395 31.24345884 -21 31 C-21 31.66 -21 32.32 -21 33 C-21.99 32.67 -22.98 32.34 -24 32 C-21.60055871 30.07799856 -19.12444494 28.44973484 -16.46875 26.9140625 C-15.50001953 26.35332031 -15.50001953 26.35332031 -14.51171875 25.78125 C-13.17393531 25.01234923 -11.83278032 24.24928406 -10.48828125 23.4921875 C-5.80832808 20.76455013 -2.48063699 17.96127398 0 13 C0.07092842 10.7927077 0.08415025 8.58332548 0.0625 6.375 C0.05347656 5.18648438 0.04445313 3.99796875 0.03515625 2.7734375 C0.02355469 1.85820313 0.01195313 0.94296875 0 0 Z " fill="#AAC35C" transform="translate(121,92)"/>
<path d="M0 0 C0.99 0.37125 1.98 0.7425 3 1.125 C8.21143665 4.3821479 14.01976058 9.05928175 16 15 C14.1875 14.8125 14.1875 14.8125 12 14 C10.4375 11.625 10.4375 11.625 9 9 C6.81589913 6.34109459 5.29346703 5.76847564 2 5 C1.67 4.34 1.34 3.68 1 3 C-5.86946838 -1.32522083 -16.13426308 -0.86060653 -23.87109375 0.5078125 C-24.57363281 0.67023438 -25.27617188 0.83265625 -26 1 C-24.22208888 -1.27177532 -23.14569764 -1.96272851 -20.3125 -2.6875 C-12.59305544 -3.41574949 -7.17960815 -2.86377628 0 0 Z " fill="#C8DE7A" transform="translate(142,86)"/>
<path d="M0 0 C1.65 0.99 3.3 1.98 5 3 C4.81640625 5.32421875 4.81640625 5.32421875 4 8 C1.71484375 9.58203125 1.71484375 9.58203125 -1.0625 10.8125 C-1.98160156 11.23144531 -2.90070313 11.65039062 -3.84765625 12.08203125 C-4.55792969 12.38496094 -5.26820312 12.68789062 -6 13 C-6.35281338 8.8029908 -5.64185432 6.93477927 -3 3.6875 C-2.443125 2.99011719 -1.88625 2.29273437 -1.3125 1.57421875 C-0.6628125 0.79498047 -0.6628125 0.79498047 0 0 Z " fill="#AFC468" transform="translate(104,95)"/>
<path d="M0 0 C0 0.66 0 1.32 0 2 C0.66 2 1.32 2 2 2 C2 2.66 2 3.32 2 4 C1.29875 3.7834375 0.5975 3.566875 -0.125 3.34375 C-10.31880648 0.3520894 -17.65023337 0.86916569 -28 3 C-26.57812667 0.15625334 -24.47554174 -0.3670005 -21.5859375 -1.39453125 C-14.27961328 -3.1052265 -6.98298264 -2.63172469 0 0 Z " fill="#000" transform="translate(142,83)"/>
<path d="M0 0 C0.60546875 1.81640625 0.60546875 1.81640625 1 4 C-0.6875 6.9375 -0.6875 6.9375 -3 10 C-3.61875 10.86625 -4.2375 11.7325 -4.875 12.625 C-7.30473281 15.34058373 -9.90469595 17.10060888 -13 19 C-13 15 -13 15 -11.42578125 13.10546875 C-10.72839844 12.47253906 -10.03101563 11.83960938 -9.3125 11.1875 C-5.63443739 7.70542652 -2.80531647 4.20797471 0 0 Z " fill="#1A2107" transform="translate(149,132)"/>
<path d="M0 0 C0.66 0.33 1.32 0.66 2 1 C2.4140625 3.06640625 2.4140625 3.06640625 2.625 5.5625 C2.69976562 6.38878906 2.77453125 7.21507812 2.8515625 8.06640625 C2.90054688 8.70449219 2.94953125 9.34257812 3 10 C3.66 10 4.32 10 5 10 C5.33 11.65 5.66 13.3 6 15 C5.2575 14.21625 4.515 13.4325 3.75 12.625 C1.29101782 9.96319465 1.29101782 9.96319465 -1.25 9.0625 C-1.8275 8.711875 -2.405 8.36125 -3 8 C-3.75 4.875 -3.75 4.875 -4 2 C-6.97 2 -9.94 2 -13 2 C-13 1.67 -13 1.34 -13 1 C-11.20841511 0.97303635 -9.41671527 0.95362083 -7.625 0.9375 C-6.62726563 0.92589844 -5.62953125 0.91429688 -4.6015625 0.90234375 C-2 1 -2 1 0 2 C0 1.34 0 0.68 0 0 Z " fill="#CBDB8D" transform="translate(100,123)"/>
<path d="M0 0 C2.5 1.375 2.5 1.375 5 3 C5 3.66 5 4.32 5 5 C11.65556077 6.7637236 18.13963599 8.34034961 25 9 C24.67 9.99 24.34 10.98 24 12 C15.18618167 10.57167371 7.51619981 9.15338361 0 4 C0 2.68 0 1.36 0 0 Z " fill="#F3F9D5" transform="translate(107,140)"/>
<path d="M0 0 C4.89445512 -0.1957782 8.40668965 0.40640253 13 2 C15.66397991 2.43996764 18.31206524 2.72193778 21 3 C21 3.99 21 4.98 21 6 C13.61394333 5.04296522 6.85882288 3.95870791 0 1 C0 0.67 0 0.34 0 0 Z " fill="#CCE180" transform="translate(112,144)"/>
<path d="M0 0 C0.33 0 0.66 0 1 0 C1.03738281 0.85722656 1.07476562 1.71445313 1.11328125 2.59765625 C1.33647712 9.90079064 1.33647712 9.90079064 3.6875 16.6875 C5.57819866 21.45926327 4.34910457 25.17622324 3 30 C2.67 30 2.34 30 2 30 C2 25.71 2 21.42 2 17 C1.34 17 0.68 17 0 17 C0 11.39 0 5.78 0 0 Z " fill="#BCD370" transform="translate(157,101)"/>
<path d="M0 0 C-1.84505949 1.84505949 -3.3067023 2.82393049 -5.5625 4.0625 C-8.740301 5.65070134 -8.740301 5.65070134 -10 7 C-11.66617115 7.04063832 -13.33388095 7.042721 -15 7 C-15 7.66 -15 8.32 -15 9 C-15.99 8.67 -16.98 8.34 -18 8 C-15.28373567 5.89966862 -12.53660638 4.02892534 -9.5625 2.3125 C-8.82128906 1.87550781 -8.08007812 1.43851562 -7.31640625 0.98828125 C-4.70474022 -0.12597087 -2.81068476 -0.18341329 0 0 Z " fill="#B2CA61" transform="translate(115,116)"/>
<path d="M0 0 C1.65 0.33 3.3 0.66 5 1 C5 2.32 5 3.64 5 5 C0.545 6.485 0.545 6.485 -4 8 C-2.87548273 5.0280615 -1.77706209 2.66559313 0 0 Z " fill="#C6E069" transform="translate(102,97)"/>
<path d="M0 0 C0.33 0 0.66 0 1 0 C1 4.29 1 8.58 1 13 C-1.93200474 10.14723863 -4.64315404 7.34920216 -7 4 C-4.5625 4.375 -4.5625 4.375 -2 5 C-1.67 5.66 -1.34 6.32 -1 7 C-0.67 4.69 -0.34 2.38 0 0 Z " fill="#DFE7C3" transform="translate(157,87)"/>
<path d="M0 0 C0.33 1.32 0.66 2.64 1 4 C-0.4375 6.25 -0.4375 6.25 -2 8 C-2.99 7.67 -3.98 7.34 -5 7 C-3.35 4.69 -1.7 2.38 0 0 Z " fill="#1F2B05" transform="translate(149,132)"/>
<path d="M0 0 C2.5 1.25 2.5 1.25 5 3 C5 4.32 5 5.64 5 7 C4.34 7 3.68 7 3 7 C3 5.68 3 4.36 3 3 C1.68 3 0.36 3 -1 3 C-0.67 2.01 -0.34 1.02 0 0 Z " fill="#B8CD6E" transform="translate(104,95)"/>
<path d="M0 0 C3.99500618 1.3697164 6.80009492 3.25722422 10 6 C5.96825194 5.72510809 4.43105369 5.46508424 1.625 2.4375 C0.820625 1.2309375 0.820625 1.2309375 0 0 Z " fill="#C1DD6A" transform="translate(106,138)"/>
<path d="M0 0 C3.125 -0.1875 3.125 -0.1875 6 0 C6 0.99 6 1.98 6 3 C3.36 3 0.72 3 -2 3 C-1.34 2.01 -0.68 1.02 0 0 Z " fill="#182203" transform="translate(152,129)"/>
<path d="M0 0 C2.0625 0.4375 2.0625 0.4375 4 1 C3.67 2.65 3.34 4.3 3 6 C1.68 4.35 0.36 2.7 -1 1 C-0.67 0.67 -0.34 0.34 0 0 Z " fill="#B6CF5E" transform="translate(118,86)"/>
</svg>
